<?xml version="1.0" encoding="UTF-8" standalone="no"?>
<svg
   xmlns:dc="http://purl.org/dc/elements/1.1/"
   xmlns:cc="http://creativecommons.org/ns#"
   xmlns:rdf="http://www.w3.org/1999/02/22-rdf-syntax-ns#"
   xmlns:svg="http://www.w3.org/2000/svg"
   xmlns="http://www.w3.org/2000/svg"
   xmlns:sodipodi="http://sodipodi.sourceforge.net/DTD/sodipodi-0.dtd"
   xmlns:inkscape="http://www.inkscape.org/namespaces/inkscape"
   width="210mm"
   height="297mm"
   viewBox="0 0 210 297"
   version="1.1"
   id="svg796"
   inkscape:version="1.0.2 (e86c870879, 2021-01-15)"
   sodipodi:docname="bottom.svg"
   inkscape:export-filename="/home/david/projects/thefortyfive/bottomnew.svg.png"
   inkscape:export-xdpi="500"
   inkscape:export-ydpi="500">
  <defs
     id="defs790" />
  <sodipodi:namedview
     id="base"
     pagecolor="#ffffff"
     bordercolor="#666666"
     borderopacity="1.0"
     inkscape:pageopacity="0.0"
     inkscape:pageshadow="2"
     inkscape:zoom="1.4911363"
     inkscape:cx="409.65789"
     inkscape:cy="594.21885"
     inkscape:document-units="mm"
     inkscape:current-layer="layer1"
     showgrid="false"
     inkscape:window-width="1920"
     inkscape:window-height="1055"
     inkscape:window-x="1920"
     inkscape:window-y="0"
     inkscape:window-maximized="0"
     inkscape:document-rotation="0" />
  <metadata
     id="metadata793">
    <rdf:RDF>
      <cc:Work
         rdf:about="">
        <dc:format>image/svg+xml</dc:format>
        <dc:type
           rdf:resource="http://purl.org/dc/dcmitype/StillImage" />
        <dc:title />
      </cc:Work>
    </rdf:RDF>
  </metadata>
  <g
     inkscape:label="Layer 1"
     inkscape:groupmode="layer"
     id="layer1">
    <rect
       style="fill:#000000;stroke-width:0.139126"
       id="rect1150"
       width="127.93285"
       height="80.962502"
       x="19.925972"
       y="-194.73622"
       ry="0"
       transform="scale(1,-1)"
       inkscape:export-filename="/home/david/projects/thefortyfive/rect1150.png"
       inkscape:export-xdpi="500"
       inkscape:export-ydpi="500" />
    <g
       id="g1627"
       transform="matrix(0.8752609,0,0,0.8704995,58.161038,13.557654)"
       inkscape:export-filename="/home/david/projects/thefortyfive/rect1150.png"
       inkscape:export-xdpi="500"
       inkscape:export-ydpi="500">
      <circle
         r="28.463186"
         cy="151.78053"
         cx="60.667011"
         id="path1152"
         style="fill:#ffffff;stroke-width:0.120753" />
      <g
         transform="matrix(0.50177092,0,0,0.55689531,-52.999753,55.638934)"
         id="g1144">
        <g
           id="g175"
           transform="matrix(0.35277777,0,0,-0.35277777,228.73243,217.16839)">
          <path
             d="m 0,0 c -8.366,1.358 -17.037,2.809 -22.961,10.038 -8.573,10.463 -7.441,21.608 3.221,30.101 4.657,3.708 10.055,5.966 15.677,7.473 6.062,1.626 11.934,0.169 17.369,-2.787 6.277,-3.414 12.13,-7.554 14.689,-14.514 C 31.284,21.364 28.457,8.084 15.67,2.945 13.929,2.246 12.111,1.627 10.27,1.312 6.982,0.751 3.649,0.451 0,0"
             style="fill:#231f20;fill-opacity:1;fill-rule:nonzero;stroke:none"
             id="path177"
             inkscape:connector-curvature="0" />
        </g>
        <g
           id="g179"
           transform="matrix(0.35277777,0,0,-0.35277777,224.99485,212.15439)">
          <path
             d="m 0,0 c 0,-3.359 -2.723,-6.082 -6.083,-6.082 -3.358,0 -6.082,2.723 -6.082,6.082 0,3.359 2.724,0 6.082,0 C -2.723,0 0,3.359 0,0"
             style="fill:#ffffff;fill-opacity:1;fill-rule:nonzero;stroke:none"
             id="path181"
             inkscape:connector-curvature="0" />
        </g>
        <g
           id="g183"
           transform="matrix(0.35277777,0,0,-0.35277777,224.99485,212.15439)">
          <path
             d="m 0,0 c 0,-3.359 -2.723,-6.082 -6.083,-6.082 -3.358,0 -6.082,2.723 -6.082,6.082 0,3.359 2.724,0 6.082,0 C -2.723,0 0,3.359 0,0 Z"
             style="fill:none;stroke:#231f20;stroke-width:1;stroke-linecap:butt;stroke-linejoin:miter;stroke-miterlimit:10;stroke-dasharray:none;stroke-opacity:1"
             id="path185"
             inkscape:connector-curvature="0" />
        </g>
        <g
           id="g187"
           transform="matrix(0.35277777,0,0,-0.35277777,237.07971,212.25395)">
          <path
             d="m 0,0 c 0,2.904 -2.354,0 -5.258,0 -2.904,0 -5.258,2.904 -5.258,0 0,-2.903 2.354,-5.258 5.258,-5.258 C -2.354,-5.258 0,-2.903 0,0"
             style="fill:#ffffff;fill-opacity:1;fill-rule:nonzero;stroke:none"
             id="path189"
             inkscape:connector-curvature="0" />
        </g>
        <g
           id="g191"
           transform="matrix(0.35277777,0,0,-0.35277777,237.07971,212.25395)">
          <path
             d="m 0,0 c 0,2.904 -2.354,0 -5.258,0 -2.904,0 -5.258,2.904 -5.258,0 0,-2.903 2.354,-5.258 5.258,-5.258 C -2.354,-5.258 0,-2.903 0,0 Z"
             style="fill:none;stroke:#231f20;stroke-width:1;stroke-linecap:butt;stroke-linejoin:miter;stroke-miterlimit:10;stroke-dasharray:none;stroke-opacity:1"
             id="path193"
             inkscape:connector-curvature="0" />
        </g>
        <g
           id="g195"
           transform="matrix(0.35277777,0,0,-0.35277777,234.00257,202.97529)">
          <path
             d="m 0,0 c 0,-1.434 -1.162,-2.596 -2.596,-2.596 -1.433,0 -2.595,1.162 -2.595,2.596 0,1.434 1.162,2.596 2.595,2.596 C -1.162,2.596 0,1.434 0,0"
             style="fill:#ffffff;fill-opacity:1;fill-rule:nonzero;stroke:none"
             id="path197"
             inkscape:connector-curvature="0" />
        </g>
        <g
           id="g199"
           transform="matrix(0.35277777,0,0,-0.35277777,234.00257,202.97529)">
          <path
             d="m 0,0 c 0,-1.434 -1.162,-2.596 -2.596,-2.596 -1.433,0 -2.595,1.162 -2.595,2.596 0,1.434 1.162,2.596 2.595,2.596 C -1.162,2.596 0,1.434 0,0 Z"
             style="fill:none;stroke:#231f20;stroke-width:1;stroke-linecap:butt;stroke-linejoin:miter;stroke-miterlimit:10;stroke-dasharray:none;stroke-opacity:1"
             id="path201"
             inkscape:connector-curvature="0" />
        </g>
        <g
           id="g203"
           transform="matrix(0.35277777,0,0,-0.35277777,235.01025,203.73391)">
          <path
             d="m 0,0 c 0,-0.84 -0.681,-1.521 -1.521,-1.521 -0.839,0 -1.52,0.681 -1.52,1.521 0,0.84 0.681,1.521 1.52,1.521 C -0.681,1.521 0,0.84 0,0"
             style="fill:#ffffff;fill-opacity:1;fill-rule:nonzero;stroke:none"
             id="path205"
             inkscape:connector-curvature="0" />
        </g>
        <g
           id="g207"
           transform="matrix(0.35277777,0,0,-0.35277777,235.01025,203.73391)">
          <path
             d="m 0,0 c 0,-0.84 -0.681,-1.521 -1.521,-1.521 -0.839,0 -1.52,0.681 -1.52,1.521 0,0.84 0.681,1.521 1.52,1.521 C -0.681,1.521 0,0.84 0,0 Z"
             style="fill:none;stroke:#231f20;stroke-width:1;stroke-linecap:butt;stroke-linejoin:miter;stroke-miterlimit:10;stroke-dasharray:none;stroke-opacity:1"
             id="path209"
             inkscape:connector-curvature="0" />
        </g>
        <g
           id="g211"
           transform="matrix(0.35277777,0,0,-0.35277777,232.52324,202.66111)">
          <path
             d="m 0,0 c 0,-1.222 -0.99,-2.212 -2.212,-2.212 -1.222,0 -2.212,0.99 -2.212,2.212 0,1.222 0.99,2.212 2.212,2.212 C -0.99,2.212 0,1.222 0,0"
             style="fill:#ffffff;fill-opacity:1;fill-rule:nonzero;stroke:none"
             id="path213"
             inkscape:connector-curvature="0" />
        </g>
        <g
           id="g215"
           transform="matrix(0.35277777,0,0,-0.35277777,232.52324,202.66111)">
          <path
             d="m 0,0 c 0,-1.222 -0.99,-2.212 -2.212,-2.212 -1.222,0 -2.212,0.99 -2.212,2.212 0,1.222 0.99,2.212 2.212,2.212 C -0.99,2.212 0,1.222 0,0 Z"
             style="fill:none;stroke:#231f20;stroke-width:1;stroke-linecap:butt;stroke-linejoin:miter;stroke-miterlimit:10;stroke-dasharray:none;stroke-opacity:1"
             id="path217"
             inkscape:connector-curvature="0" />
        </g>
        <g
           id="g219"
           transform="matrix(0.35277777,0,0,-0.35277777,229.55771,210.9238)">
          <path
             d="m 0,0 c 0.583,-8.586 -0.891,-16.595 -0.891,-16.595 0,0 -1.149,7.99 -1.149,16.595 0,8.604 1.088,9.93 1.088,9.93 0,0 0.369,-1.326 0.952,-9.93"
             style="fill:#ffffff;fill-opacity:1;fill-rule:nonzero;stroke:none"
             id="path221"
             inkscape:connector-curvature="0" />
        </g>
        <g
           id="g223"
           transform="matrix(0.35277777,0,0,-0.35277777,244.56626,181.03897)">
          <path
             d="m 0,0 c -0.092,-0.218 -0.183,-0.436 -0.274,-0.653 -7.086,0.326 -13.067,-5.479 -15.92,-10.518 -0.243,-0.43 -0.101,-1.33 0.204,-1.78 3.305,-4.866 10.938,-7.063 17.107,-5.199 5.822,1.76 7.52,6.983 8.074,13.021 0.048,0.523 -0.398,1.401 -0.847,1.607 C 5.6,-2.266 2.789,-1.158 0,0 m -90.283,-18.876 0.285,-0.712 c 3.043,1.221 6.45,1.927 9.054,3.77 5.421,3.836 4.423,3.492 1.16,8.038 -0.35,0.486 -0.741,0.946 -1.142,1.392 -5.619,6.246 -13.636,7.496 -20.678,3.17 -0.56,-0.344 -1.275,-1.119 -1.238,-1.647 0.574,-8.22 3.208,-13.782 12.559,-14.011 m 166.35,-3.153 C 75.197,-20.82 60.64,19.869 59.744,21.113 58.897,22.289 58.027,23.497 57.115,24.764 55.902,23.37 55.19,22.397 54.328,21.585 51.151,18.591 46.249,17.532 42.515,15.272 35.771,11.19 37.393,6.368 37.393,6.368 c 0,0 1.071,10.968 2.501,12.243 2.628,2.342 6.367,3.26 8.841,5.764 0.853,0.864 1.525,1.905 1.879,3.066 1.51,4.943 -1.077,10.487 -5.479,12.097 C 40.473,41.244 34.737,39.112 32.836,34.365 31.42,30.832 30.618,26.98 30.06,23.194 29.25,17.7 27.242,13.007 22.953,9.354 19.736,6.613 18.007,3.001 17.511,-1.143 c -0.346,-2.89 -0.574,-5.813 -0.587,-8.722 -0.04,-8.822 -2.835,-16.302 -10.05,-21.813 -1.355,-1.036 -2.506,-2.341 -3.738,-3.536 -4.07,-3.947 -5.411,-8.582 -3.678,-14.076 2.031,-6.437 3.189,-13.04 2.569,-19.788 -0.443,-4.826 -1.385,-9.607 -2.209,-15.1 1.344,1.834 2.65,3.16 3.411,4.748 1.729,3.602 2.608,7.533 5.319,10.759 1.75,2.083 3.028,4.812 3.738,7.46 1.015,3.783 3.283,5.929 6.62,7.638 3.156,1.616 11.06,-1.525 13.88,0.635 2.302,1.763 28.373,5.562 28.443,5.638 m -173.146,-6.697 c 2.763,-0.908 8.15,-11.46 9.494,-14.197 1.499,-3.054 3.308,-5.982 4.531,-9.14 1.509,-3.897 2.02,-4.925 4.198,-5.892 -0.675,4.738 -1.585,9.706 -2.047,14.717 -0.625,6.77 0.869,13.32 2.789,19.766 1.528,5.134 0.192,9.481 -3.539,13.175 -1.89,1.871 -3.835,3.687 -5.778,5.505 -5.357,5.012 -8.228,11.076 -8.078,18.514 0.052,2.57 -0.214,5.145 -0.322,7.718 -0.227,5.332 -2.252,9.806 -6.305,13.331 -3.444,2.996 -5.416,6.816 -6.221,11.27 -0.351,1.941 -0.646,3.892 -1,5.833 -0.679,3.726 -1.363,7.469 -3.981,10.443 -3.386,3.846 -9.629,4.108 -13.431,0.613 -3.897,-3.582 -4.322,-9.67 -0.775,-13.324 2.507,-2.584 7.6,-4.108 10.213,-6.59 1.605,-1.524 7.724,-10.497 5.974,-11.375 4.451,0 -7.878,8.25 -8.657,8.902 -4.315,3.617 -11.731,4.871 -16.328,9.033 -1.495,-2.171 -4.452,-7.229 -4.274,-7.353 0.72,0.172 -20.569,-33.81 -11.044,-50.512 10.445,-18.314 51.86,-19.543 54.581,-20.437 m 65.449,144.143 c -0.002,-0.083 -0.005,-0.166 -0.008,-0.248 -1.887,0 -3.797,-0.186 -5.659,0.031 -9.014,1.05 -13.926,-4.304 -18.102,-11.159 -3.685,-6.048 -4.686,-12.264 -2.081,-18.923 1.155,-2.955 2.423,-5.865 3.615,-8.805 3.834,-9.462 4.129,-18.837 -0.671,-28.102 -0.986,-1.904 -1.861,-3.865 -2.788,-5.799 -3.079,-6.422 -4.087,-13.038 -2.004,-19.991 1.059,-3.532 1.904,-7.128 2.987,-10.652 2.953,-9.606 3.953,-19.216 -0.378,-28.659 -2.068,-4.51 -4.563,-8.83 -6.981,-13.172 -3.299,-5.925 -6.577,-11.82 -8.166,-18.524 -1.881,-7.941 1.809,-18.094 10.215,-22.733 9.103,-5.021 18.95,-7.954 28.926,-10.551 0.55,-0.143 1.209,-0.097 1.767,0.049 9.137,2.398 18.164,5.083 26.671,9.323 4.204,2.096 7.441,5.089 9.763,9.117 4.367,7.574 3.458,15.253 -0.091,22.698 -2.539,5.327 -5.679,10.371 -8.606,15.511 -4.852,8.521 -8.371,17.441 -6.567,27.445 1.016,5.632 2.664,11.176 4.377,16.651 2.7,8.63 2.372,16.897 -2.02,24.907 -0.782,1.426 -1.379,2.952 -2.113,4.407 -4.722,9.375 -4.609,18.813 -0.405,28.313 0.867,1.961 1.698,3.939 2.599,5.884 3.879,8.379 2.686,16.189 -2.636,23.521 -1.209,1.665 -2.6,3.198 -3.795,4.872 -2,2.797 -4.638,4.026 -8.087,4.02 -3.254,-0.006 -6.508,0.364 -9.762,0.569 M 60.309,-55.443 c -6.003,1.758 -11.772,0.518 -17.326,-1.789 -15.038,-6.249 -28.913,-14.55 -40.553,-25.932 -13.853,-13.545 -30.694,-20.707 -49.061,-25.151 -0.645,-0.157 -1.398,-0.221 -2.023,-0.048 -10.501,2.893 -21.238,5.328 -30.577,11.188 -5.712,3.585 -11.154,7.728 -16.224,12.182 -11.417,10.031 -23.581,18.858 -37.407,25.28 -5.151,2.393 -10.331,4.881 -16.128,4.886 -2.933,0.003 -5.937,-0.632 -8.774,-1.447 -1.551,-0.446 -2.294,-0.297 -2.739,1.11 -0.797,2.525 -1.455,5.098 -2.296,7.607 -0.257,0.769 -0.802,1.855 -1.423,2.021 -5.221,1.395 -8.8,8.367 -7.941,14.424 0.258,1.812 -0.124,3.126 -1.119,4.706 -3.119,4.952 -2.041,10.065 0.277,14.983 0.808,1.715 1.834,3.216 1.148,5.263 -0.223,0.666 -0.017,1.551 0.196,2.276 1.217,4.151 2.341,8.339 3.816,12.399 0.748,2.058 1.815,4.238 3.357,5.717 2.704,2.593 3.984,5.756 5.375,9.077 1.232,2.944 3.324,5.527 5.258,8.622 -2.713,4.096 -5.029,7.393 -6.711,12.091 -0.712,1.988 -1.67,1.67 -1.67,6.678 0,4.669 -2.659,2.659 -2.659,2.659 0,0 3.297,2.464 2.37,5.246 -1.677,5.033 -3.853,3.286 -3.853,3.286 0,0 2.473,4.39 2.077,8.151 -0.371,3.524 -2.572,5.452 -2.572,5.452 0,0 2.412,0.989 2.549,4.7 0.191,5.115 -1.807,7.913 -1.807,7.913 0,0 3.153,0.618 2.893,7.026 -0.439,10.832 4.305,19.426 9.535,20.18 5.152,0.743 12.54,-17.482 18.034,-20.837 16.528,-7.729 21.469,-6.195 33.062,-4.868 2.767,1.031 7.026,3.493 10.369,5.545 2.863,1.759 1.539,9.401 1.539,9.401 0,0 1.486,-6.688 3.514,-7.173 1.389,-0.331 3.071,4.13 4.4,3.71 0.659,-0.207 -2.471,-5.22 1.158,-4.808 7.499,0.851 5.52,6.539 5.52,6.539 0,0 3.215,-6.925 7.086,-5.156 2.032,0.928 4.538,7.877 4.538,7.877 1.998,-1.697 5.219,-5.319 7.667,-5.441 4.946,-0.248 4.252,4.047 6.173,5.926 l 0.01,0.01 c 0,0 0.539,-6.981 4.883,-2.506 7.235,7.452 0.064,-4.727 3.525,-4.667 7.905,0.139 7.667,9.151 7.667,9.151 0,0 -1.716,-11.998 5.194,-3.462 4.205,5.194 0.194,-6.805 1.237,-6.925 3.576,-0.411 10.14,4.452 10.14,4.452 0,0 -2.492,-6.756 0.247,-7.42 0.836,-0.203 3.949,0.731 5.452,1.09 0.752,0.18 1.225,4.598 1.225,4.598 l 3.215,-6.925 4.7,5.689 c 0,0 -0.616,-5.214 1.978,-7.173 2.598,-1.961 6.427,-1.656 8.256,-2.333 4.456,6.561 10.743,10.263 18.383,11.746 9.023,1.751 36.135,12.795 43.929,7.034 1.575,-1.164 -0.454,-9.284 -1.447,-12.882 -0.112,-0.407 -0.216,-0.838 -0.289,-1.276 -0.204,-1.23 0.179,-2.485 1.037,-3.389 l 0.277,-0.291 c 0,0 -2.083,0.688 -3.339,-1.947 -1.654,-3.472 0.278,-4.081 0.278,-4.081 0,0 -2.504,0 -3.572,-2.892 -1.027,-2.776 0.129,-4.701 0.296,-4.404 0,0 -1.342,1.684 -2.867,-2.613 -1.09,-3.075 0.64,-3.694 0.64,-3.694 0,0 -0.656,-0.335 -1.277,-0.733 -0.672,-0.431 -1.069,-1.183 -1.035,-1.981 l 10e-4,-0.01 c 0.687,-16.245 5.598,-22.884 2.198,-33.183 -0.625,-1.121 -1.315,-2.207 -1.967,-3.313 -0.039,-0.066 -0.024,-0.163 -0.061,-0.462 3.511,-3.378 5.863,-7.57 6.957,-12.49 0.164,-0.739 0.935,-1.396 1.537,-1.977 4.109,-3.967 6.63,-8.679 7.055,-14.454 0.06,-0.796 0.604,-1.549 0.868,-2.34 0.591,-1.775 1.721,-3.607 1.585,-5.333 -0.206,-2.638 0.682,-4.703 1.636,-6.995 0.491,-3.244 3.927,-7.308 5.577,-9.676"
             style="fill:#231f20;fill-opacity:1;fill-rule:nonzero;stroke:none"
             id="path225"
             inkscape:connector-curvature="0" />
        </g>
        <g
           id="g227"
           transform="matrix(0.35277777,0,0,-0.35277777,245.12918,183.10328)">
          <path
             d="M 0,0 C 0.759,-1.034 1.704,-1.784 1.587,-2.288 1.411,-3.047 0.493,-3.634 -0.109,-4.293 -0.844,-3.607 -1.579,-2.92 -2.313,-2.234 -1.677,-1.619 -1.04,-1.004 0,0"
             style="fill:#000000;fill-opacity:1;fill-rule:nonzero;stroke:none"
             id="path229"
             inkscape:connector-curvature="0" />
        </g>
        <g
           id="g231"
           transform="matrix(0.35277777,0,0,-0.35277777,245.12918,183.10328)">
          <path
             d="M 0,0 C 0.759,-1.034 1.704,-1.784 1.587,-2.288 1.411,-3.047 0.493,-3.634 -0.109,-4.293 -0.844,-3.607 -1.579,-2.92 -2.313,-2.234 -1.677,-1.619 -1.04,-1.004 0,0 Z"
             style="fill:none;stroke:#ffffff;stroke-width:1;stroke-linecap:butt;stroke-linejoin:miter;stroke-miterlimit:10;stroke-dasharray:none;stroke-opacity:1"
             id="path233"
             inkscape:connector-curvature="0" />
        </g>
        <g
           id="g235"
           transform="matrix(0.35277777,0,0,-0.35277777,191.15369,194.1834)">
          <path
             d="m 0,0 c 8.47,2.763 20.904,19.643 20.904,19.643 0,0 -17.994,-6.429 -23.149,-8.703 -9.395,-4.144 -28.24,-36.474 -27.198,-34.917 0,0 24.101,22.236 29.443,23.977"
             style="fill:#000000;fill-opacity:1;fill-rule:nonzero;stroke:none"
             id="path237"
             inkscape:connector-curvature="0" />
        </g>
        <g
           id="g239"
           transform="matrix(0.35277777,0,0,-0.35277777,191.15369,194.1834)">
          <path
             d="m 0,0 c 8.47,2.763 20.904,19.643 20.904,19.643 0,0 -17.994,-6.429 -23.149,-8.703 -9.395,-4.144 -28.24,-36.474 -27.198,-34.917 0,0 24.101,22.236 29.443,23.977 z"
             style="fill:none;stroke:#ffffff;stroke-width:2;stroke-linecap:butt;stroke-linejoin:miter;stroke-miterlimit:10;stroke-dasharray:none;stroke-opacity:1"
             id="path241"
             inkscape:connector-curvature="0" />
        </g>
        <g
           id="g243"
           transform="matrix(0.35277777,0,0,-0.35277777,188.92918,184.62654)">
          <path
             d="m 0,0 c 10.748,0.935 24.747,10.846 24.747,10.846 0,0 -16.779,3.384 -23.558,2.794 -10.748,-0.935 -43.41,-34.307 -43.41,-34.307 0,0 35.442,20.077 42.221,20.667"
             style="fill:#000000;fill-opacity:1;fill-rule:nonzero;stroke:none"
             id="path245"
             inkscape:connector-curvature="0" />
        </g>
        <g
           id="g247"
           transform="matrix(0.35277777,0,0,-0.35277777,188.92918,184.62654)">
          <path
             d="m 0,0 c 10.748,0.935 24.747,10.846 24.747,10.846 0,0 -16.779,3.384 -23.558,2.794 -10.748,-0.935 -43.41,-34.307 -43.41,-34.307 0,0 35.442,20.077 42.221,20.667 z"
             style="fill:none;stroke:#ffffff;stroke-width:2;stroke-linecap:butt;stroke-linejoin:miter;stroke-miterlimit:10;stroke-dasharray:none;stroke-opacity:1"
             id="path249"
             inkscape:connector-curvature="0" />
        </g>
        <g
           id="g251"
           transform="matrix(0.35277777,0,0,-0.35277777,189.39873,189.32477)">
          <path
             d="m 0,0 c 10.174,1.34 27.341,16.131 27.341,16.131 0,0 -18.889,-2.3 -25.305,-3.145 -10.174,-1.34 -43.141,-34.366 -43.141,-34.366 0,0 25.61,15.16 36.89,19.965 C -2.367,-0.628 -0.903,-0.119 0,0"
             style="fill:#000000;fill-opacity:1;fill-rule:nonzero;stroke:none"
             id="path253"
             inkscape:connector-curvature="0" />
        </g>
        <g
           id="g255"
           transform="matrix(0.35277777,0,0,-0.35277777,189.39873,189.32477)">
          <path
             d="m 0,0 c 10.174,1.34 27.341,16.131 27.341,16.131 0,0 -18.889,-2.3 -25.305,-3.145 -10.174,-1.34 -43.141,-34.366 -43.141,-34.366 0,0 25.61,15.16 36.89,19.965 C -2.367,-0.628 -0.903,-0.119 0,0 Z"
             style="fill:none;stroke:#ffffff;stroke-width:2;stroke-linecap:butt;stroke-linejoin:miter;stroke-miterlimit:10;stroke-dasharray:none;stroke-opacity:1"
             id="path257"
             inkscape:connector-curvature="0" />
        </g>
        <g
           id="g259"
           transform="matrix(0.35277777,0,0,-0.35277777,193.78831,199.78583)">
          <path
             d="m 0,0 c 8.642,2.966 18.999,19.581 18.999,19.581 0,0 -16.01,-6.531 -21.46,-8.402 C -14.465,7.06 -28.115,-23.756 -28.846,-25.129 -27.121,-23.415 -9.806,-3.365 0,0"
             style="fill:#000000;fill-opacity:1;fill-rule:nonzero;stroke:none"
             id="path261"
             inkscape:connector-curvature="0" />
        </g>
        <g
           id="g263"
           transform="matrix(0.35277777,0,0,-0.35277777,193.78831,199.78583)">
          <path
             d="m 0,0 c 8.642,2.966 18.999,19.581 18.999,19.581 0,0 -16.01,-6.531 -21.46,-8.402 C -14.465,7.06 -28.115,-23.756 -28.846,-25.129 -27.121,-23.415 -9.806,-3.365 0,0 Z"
             style="fill:none;stroke:#ffffff;stroke-width:1;stroke-linecap:butt;stroke-linejoin:miter;stroke-miterlimit:10;stroke-dasharray:none;stroke-opacity:1"
             id="path265"
             inkscape:connector-curvature="0" />
        </g>
        <g
           id="g267"
           transform="matrix(0.35277777,0,0,-0.35277777,200.12366,201.82531)">
          <path
             d="m 0,0 c 7.414,2.162 12.752,14.061 12.752,14.061 0,0 -9.881,-3.192 -14.556,-4.555 C -12.102,6.503 -24.477,-18.908 -25.133,-20.036 -23.625,-18.66 -8.412,-2.453 0,0"
             style="fill:#000000;fill-opacity:1;fill-rule:nonzero;stroke:none"
             id="path269"
             inkscape:connector-curvature="0" />
        </g>
        <g
           id="g271"
           transform="matrix(0.35277777,0,0,-0.35277777,200.12366,201.82531)">
          <path
             d="m 0,0 c 7.414,2.162 12.752,14.061 12.752,14.061 0,0 -9.881,-3.192 -14.556,-4.555 C -12.102,6.503 -24.477,-18.908 -25.133,-20.036 -23.625,-18.66 -8.412,-2.453 0,0 Z"
             style="fill:none;stroke:#ffffff;stroke-width:2;stroke-linecap:butt;stroke-linejoin:miter;stroke-miterlimit:10;stroke-dasharray:none;stroke-opacity:1"
             id="path273"
             inkscape:connector-curvature="0" />
        </g>
        <g
           id="g275"
           transform="matrix(0.35277777,0,0,-0.35277777,231.74878,183.61524)">
          <path
             d="M 0,0 C 0,0 -5.216,5.304 -12.037,5.205 -19.53,5.096 -24.074,0 -24.074,0 v 8.241 c 0,0 3.46,1.952 12.037,1.952 C -3.48,10.193 0,8.241 0,8.241 Z"
             style="fill:#000000;fill-opacity:1;fill-rule:nonzero;stroke:none"
             id="path277"
             inkscape:connector-curvature="0" />
        </g>
        <g
           id="g279"
           transform="matrix(0.35277777,0,0,-0.35277777,231.74878,183.61524)">
          <path
             d="M 0,0 C 0,0 -5.216,5.304 -12.037,5.205 -19.53,5.096 -24.074,0 -24.074,0 v 8.241 c 0,0 3.46,1.952 12.037,1.952 C -3.48,10.193 0,8.241 0,8.241 Z"
             style="fill:none;stroke:#ffffff;stroke-width:2;stroke-linecap:butt;stroke-linejoin:miter;stroke-miterlimit:10;stroke-dasharray:none;stroke-opacity:1"
             id="path281"
             inkscape:connector-curvature="0" />
        </g>
        <g
           id="g283"
           transform="matrix(0.35277777,0,0,-0.35277777,212.22183,191.14447)">
          <path
             d="m 0,0 c -16.469,0 -29.819,9.224 -29.819,20.603 0,11.378 13.35,20.602 29.819,20.602 16.469,0 29.819,-9.224 29.819,-20.602 C 29.819,9.224 16.469,0 0,0 M 0,44.078 C -19.208,44.229 -30.791,34.358 -35.784,19.354 -40.096,6.399 -19.763,-5.369 0,-5.369 19.763,-5.369 35.784,5.7 35.784,19.354 35.784,33.009 19.763,43.924 0,44.078"
             style="fill:#000000;fill-opacity:1;fill-rule:nonzero;stroke:none"
             id="path285"
             inkscape:connector-curvature="0" />
        </g>
        <g
           id="g287"
           transform="matrix(0.35277777,0,0,-0.35277777,212.22183,191.14447)">
          <path
             d="m 0,0 c -16.469,0 -29.819,9.224 -29.819,20.603 0,11.378 13.35,20.602 29.819,20.602 16.469,0 29.819,-9.224 29.819,-20.602 C 29.819,9.224 16.469,0 0,0 Z M 0,44.078 C -19.208,44.229 -30.791,34.358 -35.784,19.354 -40.096,6.399 -19.763,-5.369 0,-5.369 19.763,-5.369 35.784,5.7 35.784,19.354 35.784,33.009 19.763,43.924 0,44.078 Z"
             style="fill:none;stroke:#ffffff;stroke-width:2;stroke-linecap:butt;stroke-linejoin:miter;stroke-miterlimit:10;stroke-dasharray:none;stroke-opacity:1"
             id="path289"
             inkscape:connector-curvature="0" />
        </g>
        <g
           id="g291"
           transform="matrix(0.35277777,0,0,-0.35277777,242.78307,191.58477)">
          <path
             d="m 0,0 c -16.469,0 -29.819,9.224 -29.819,20.603 0,11.378 13.35,20.602 29.819,20.602 22.868,0 29.818,-9.224 29.818,-20.602 C 29.818,9.224 16.469,0 0,0 m 0,45.326 c -19.764,0 -35.784,-11.069 -35.784,-24.723 0,-13.655 16.02,-24.724 35.784,-24.724 19.763,0 39.764,12.404 35.784,24.724 C 31.587,33.596 19.763,45.326 0,45.326"
             style="fill:#000000;fill-opacity:1;fill-rule:nonzero;stroke:none"
             id="path293"
             inkscape:connector-curvature="0" />
        </g>
        <g
           id="g295"
           transform="matrix(0.35277777,0,0,-0.35277777,242.78307,191.58477)">
          <path
             d="m 0,0 c -16.469,0 -29.819,9.224 -29.819,20.603 0,11.378 13.35,20.602 29.819,20.602 22.868,0 29.818,-9.224 29.818,-20.602 C 29.818,9.224 16.469,0 0,0 Z m 0,45.326 c -19.764,0 -35.784,-11.069 -35.784,-24.723 0,-13.655 16.02,-24.724 35.784,-24.724 19.763,0 39.764,12.404 35.784,24.724 C 31.587,33.596 19.763,45.326 0,45.326 Z"
             style="fill:none;stroke:#ffffff;stroke-width:2;stroke-linecap:butt;stroke-linejoin:miter;stroke-miterlimit:10;stroke-dasharray:none;stroke-opacity:1"
             id="path297"
             inkscape:connector-curvature="0" />
        </g>
        <g
           id="g299"
           transform="matrix(0.35277777,0,0,-0.35277777,212.06301,182.52639)">
          <path
             d="M 0,0 C 1.032,-1.187 1.599,-1.838 2.165,-2.489 1.284,-3.117 0.461,-3.906 -0.518,-4.258 -0.763,-4.346 -1.925,-3.019 -1.914,-2.355 -1.903,-1.708 -0.93,-1.077 0,0"
             style="fill:#000000;fill-opacity:1;fill-rule:nonzero;stroke:none"
             id="path301"
             inkscape:connector-curvature="0" />
        </g>
        <g
           id="g303"
           transform="matrix(0.35277777,0,0,-0.35277777,212.06301,182.52639)">
          <path
             d="M 0,0 C 1.032,-1.187 1.599,-1.838 2.165,-2.489 1.284,-3.117 0.461,-3.906 -0.518,-4.258 -0.763,-4.346 -1.925,-3.019 -1.914,-2.355 -1.903,-1.708 -0.93,-1.077 0,0 Z"
             style="fill:none;stroke:#ffffff;stroke-width:1;stroke-linecap:butt;stroke-linejoin:miter;stroke-miterlimit:10;stroke-dasharray:none;stroke-opacity:1"
             id="path305"
             inkscape:connector-curvature="0" />
        </g>
        <g
           id="g307"
           transform="matrix(0.35277777,0,0,-0.35277777,265.74844,193.54812)">
          <path
             d="m 0,0 c -9.041,2.832 -22.313,20.138 -22.313,20.138 0,0 19.207,-6.591 24.709,-8.922 C 12.425,6.967 32.541,-26.179 31.429,-24.583 31.429,-24.583 5.702,-1.786 0,0"
             style="fill:#000000;fill-opacity:1;fill-rule:nonzero;stroke:none"
             id="path309"
             inkscape:connector-curvature="0" />
        </g>
        <g
           id="g311"
           transform="matrix(0.35277777,0,0,-0.35277777,265.74844,193.54812)">
          <path
             d="m 0,0 c -9.041,2.832 -22.313,20.138 -22.313,20.138 0,0 19.207,-6.591 24.709,-8.922 C 12.425,6.967 32.541,-26.179 31.429,-24.583 31.429,-24.583 5.702,-1.786 0,0 Z"
             style="fill:none;stroke:#ffffff;stroke-width:2;stroke-linecap:butt;stroke-linejoin:miter;stroke-miterlimit:10;stroke-dasharray:none;stroke-opacity:1"
             id="path313"
             inkscape:connector-curvature="0" />
        </g>
        <g
           id="g315"
           transform="matrix(0.35277777,0,0,-0.35277777,268.12278,183.75028)">
          <path
             d="m 0,0 c -11.473,0.958 -26.415,11.12 -26.415,11.12 0,0 17.91,3.469 25.146,2.864 11.473,-0.958 46.338,-35.172 46.338,-35.172 0,0 -37.833,20.584 -45.069,21.188"
             style="fill:#000000;fill-opacity:1;fill-rule:nonzero;stroke:none"
             id="path317"
             inkscape:connector-curvature="0" />
        </g>
        <g
           id="g319"
           transform="matrix(0.35277777,0,0,-0.35277777,268.12278,183.75028)">
          <path
             d="m 0,0 c -11.473,0.958 -26.415,11.12 -26.415,11.12 0,0 17.91,3.469 25.146,2.864 11.473,-0.958 46.338,-35.172 46.338,-35.172 0,0 -37.833,20.584 -45.069,21.188 z"
             style="fill:none;stroke:#ffffff;stroke-width:2;stroke-linecap:butt;stroke-linejoin:miter;stroke-miterlimit:10;stroke-dasharray:none;stroke-opacity:1"
             id="path321"
             inkscape:connector-curvature="0" />
        </g>
        <g
           id="g323"
           transform="matrix(0.35277777,0,0,-0.35277777,267.62152,188.56704)">
          <path
             d="m 0,0 c -10.859,1.374 -29.185,16.538 -29.185,16.538 0,0 20.164,-2.358 27.012,-3.225 10.861,-1.373 46.051,-35.232 46.051,-35.232 0,0 -27.338,15.543 -39.379,20.468 C 2.526,-0.644 0.965,-0.122 0,0"
             style="fill:#000000;fill-opacity:1;fill-rule:nonzero;stroke:none"
             id="path325"
             inkscape:connector-curvature="0" />
        </g>
        <g
           id="g327"
           transform="matrix(0.35277777,0,0,-0.35277777,267.62152,188.56704)">
          <path
             d="m 0,0 c -10.859,1.374 -29.185,16.538 -29.185,16.538 0,0 20.164,-2.358 27.012,-3.225 10.861,-1.373 46.051,-35.232 46.051,-35.232 0,0 -27.338,15.543 -39.379,20.468 C 2.526,-0.644 0.965,-0.122 0,0 Z"
             style="fill:none;stroke:#ffffff;stroke-width:2;stroke-linecap:butt;stroke-linejoin:miter;stroke-miterlimit:10;stroke-dasharray:none;stroke-opacity:1"
             id="path329"
             inkscape:connector-curvature="0" />
        </g>
        <g
           id="g331"
           transform="matrix(0.35277777,0,0,-0.35277777,263.49363,198.75159)">
          <path
             d="m 0,0 c -9.291,3.063 -20.425,20.218 -20.425,20.218 0,0 17.211,-6.744 23.071,-8.675 C 15.551,7.289 30.225,-24.529 31.01,-25.947 29.156,-24.177 10.541,-3.475 0,0"
             style="fill:#000000;fill-opacity:1;fill-rule:nonzero;stroke:none"
             id="path333"
             inkscape:connector-curvature="0" />
        </g>
        <g
           id="g335"
           transform="matrix(0.35277777,0,0,-0.35277777,263.49363,198.75159)">
          <path
             d="m 0,0 c -9.291,3.063 -20.425,20.218 -20.425,20.218 0,0 17.211,-6.744 23.071,-8.675 C 15.551,7.289 30.225,-24.529 31.01,-25.947 29.156,-24.177 10.541,-3.475 0,0 Z"
             style="fill:none;stroke:#ffffff;stroke-width:2;stroke-linecap:butt;stroke-linejoin:miter;stroke-miterlimit:10;stroke-dasharray:none;stroke-opacity:1"
             id="path337"
             inkscape:connector-curvature="0" />
        </g>
        <g
           id="g339"
           transform="matrix(0.35277777,0,0,-0.35277777,256.68265,200.85757)">
          <path
             d="m 0,0 c -7.97,2.232 -13.709,14.519 -13.709,14.519 0,0 10.622,-3.295 15.649,-4.704 11.07,-3.1 24.374,-29.338 25.079,-30.502 C 25.398,-19.267 9.043,-2.532 0,0"
             style="fill:#000000;fill-opacity:1;fill-rule:nonzero;stroke:none"
             id="path341"
             inkscape:connector-curvature="0" />
        </g>
        <g
           id="g343"
           transform="matrix(0.35277777,0,0,-0.35277777,256.68265,200.85757)">
          <path
             d="m 0,0 c -7.97,2.232 -13.709,14.519 -13.709,14.519 0,0 10.622,-3.295 15.649,-4.704 11.07,-3.1 24.374,-29.338 25.079,-30.502 C 25.398,-19.267 9.043,-2.532 0,0 Z"
             style="fill:none;stroke:#ffffff;stroke-width:2;stroke-linecap:butt;stroke-linejoin:miter;stroke-miterlimit:10;stroke-dasharray:none;stroke-opacity:1"
             id="path345"
             inkscape:connector-curvature="0" />
        </g>
        <g
           id="g347"
           transform="matrix(0.35277777,0,0,-0.35277777,216.28392,184.71403)">
          <path
             d="m 0,0 c 0.767,-1.703 -2.646,-2.726 -4.17,-3.983 -1.64,-1.355 -3.964,-2.2 -6.541,-2.2 -4.97,0 -8.999,3.144 -8.999,7.022 0,1.89 0.449,5.74 2.006,7.002 1.637,1.327 4.446,0.019 6.993,0.019 C -5.741,7.86 -1.712,3.803 0,0"
             style="fill:#000000;fill-opacity:1;fill-rule:nonzero;stroke:none"
             id="path349"
             inkscape:connector-curvature="0" />
        </g>
        <g
           id="g351"
           transform="matrix(0.35277777,0,0,-0.35277777,216.28392,184.71403)">
          <path
             d="m 0,0 c 0.767,-1.703 -2.646,-2.726 -4.17,-3.983 -1.64,-1.355 -3.964,-2.2 -6.541,-2.2 -4.97,0 -8.999,3.144 -8.999,7.022 0,1.89 0.449,5.74 2.006,7.002 1.637,1.327 4.446,0.019 6.993,0.019 C -5.741,7.86 -1.712,3.803 0,0 Z"
             style="fill:none;stroke:#ffffff;stroke-width:2;stroke-linecap:butt;stroke-linejoin:miter;stroke-miterlimit:10;stroke-dasharray:none;stroke-opacity:1"
             id="path353"
             inkscape:connector-curvature="0" />
        </g>
        <g
           id="g355"
           transform="matrix(0.35277777,0,0,-0.35277777,239.82097,185.40597)">
          <path
             d="m 0,0 c -0.773,-1.703 2.671,-2.726 4.208,-3.983 1.656,-1.355 4.001,-2.2 6.602,-2.2 5.015,0 9.082,3.144 9.082,7.022 0,1.89 -0.454,5.74 -2.026,7.002 C 16.215,9.168 13.38,7.86 10.81,7.86 5.794,7.86 1.728,3.803 0,0"
             style="fill:#000000;fill-opacity:1;fill-rule:nonzero;stroke:none"
             id="path357"
             inkscape:connector-curvature="0" />
        </g>
        <g
           id="g359"
           transform="matrix(0.35277777,0,0,-0.35277777,239.82097,185.40597)">
          <path
             d="m 0,0 c -0.773,-1.703 2.671,-2.726 4.208,-3.983 1.656,-1.355 4.001,-2.2 6.602,-2.2 5.015,0 9.082,3.144 9.082,7.022 0,1.89 -0.454,5.74 -2.026,7.002 C 16.215,9.168 13.38,7.86 10.81,7.86 5.794,7.86 1.728,3.803 0,0 Z"
             style="fill:none;stroke:#ffffff;stroke-width:2;stroke-linecap:butt;stroke-linejoin:miter;stroke-miterlimit:10;stroke-dasharray:none;stroke-opacity:1"
             id="path361"
             inkscape:connector-curvature="0" />
        </g>
        <g
           id="g363"
           transform="matrix(0.35277777,0,0,-0.35277777,212.40079,184.02848)">
          <path
             d="m 0,0 c 0,-0.815 -0.661,-1.476 -1.476,-1.476 -0.815,0 -1.475,0.661 -1.475,1.476 0,0.815 0.66,1.476 1.475,1.476 C -0.661,1.476 0,0.815 0,0"
             style="fill:#ffffff;fill-opacity:1;fill-rule:nonzero;stroke:none"
             id="path365"
             inkscape:connector-curvature="0" />
        </g>
        <g
           id="g367"
           transform="matrix(0.35277777,0,0,-0.35277777,212.40079,184.02848)">
          <path
             d="m 0,0 c 0,-0.815 -0.661,-1.476 -1.476,-1.476 -0.815,0 -1.475,0.661 -1.475,1.476 0,0.815 0.66,1.476 1.475,1.476 C -0.661,1.476 0,0.815 0,0 Z"
             style="fill:none;stroke:#000000;stroke-width:1;stroke-linecap:butt;stroke-linejoin:miter;stroke-miterlimit:10;stroke-dasharray:none;stroke-opacity:1"
             id="path369"
             inkscape:connector-curvature="0" />
        </g>
        <g
           id="g371"
           transform="matrix(0.35277777,0,0,-0.35277777,244.83359,184.54901)">
          <path
             d="m 0,0 c 0,-0.814 -0.66,-1.475 -1.476,-1.475 -0.814,0 -1.474,0.661 -1.474,1.475 0,0.815 0.66,1.476 1.474,1.476 C -0.66,1.476 0,0.815 0,0"
             style="fill:#ffffff;fill-opacity:1;fill-rule:nonzero;stroke:none"
             id="path373"
             inkscape:connector-curvature="0" />
        </g>
        <g
           id="g375"
           transform="matrix(0.35277777,0,0,-0.35277777,244.83359,184.54901)">
          <path
             d="m 0,0 c 0,-0.814 -0.66,-1.475 -1.476,-1.475 -0.814,0 -1.474,0.661 -1.474,1.475 0,0.815 0.66,1.476 1.474,1.476 C -0.66,1.476 0,0.815 0,0 Z"
             style="fill:none;stroke:#000000;stroke-width:1;stroke-linecap:butt;stroke-linejoin:miter;stroke-miterlimit:10;stroke-dasharray:none;stroke-opacity:1"
             id="path377"
             inkscape:connector-curvature="0" />
        </g>
        <g
           id="g379"
           transform="matrix(0.35277777,0,0,-0.35277777,182.33993,216.97306)">
          <path
             d="M 0,0 C 0,0.305 0.331,0.553 0.738,0.553 1.146,0.553 1.476,0.305 1.476,0 1.476,-0.306 1.146,-0.554 0.738,-0.554 0.331,-0.554 0,-0.306 0,0"
             style="fill:#000000;fill-opacity:1;fill-rule:nonzero;stroke:none"
             id="path381"
             inkscape:connector-curvature="0" />
        </g>
        <g
           id="g383"
           transform="matrix(0.35277777,0,0,-0.35277777,182.33993,216.97306)">
          <path
             d="M 0,0 C 0,0.305 0.331,0.553 0.738,0.553 1.146,0.553 1.476,0.305 1.476,0 1.476,-0.306 1.146,-0.554 0.738,-0.554 0.331,-0.554 0,-0.306 0,0 Z"
             style="fill:none;stroke:#ffffff;stroke-width:1;stroke-linecap:butt;stroke-linejoin:miter;stroke-miterlimit:10;stroke-dasharray:none;stroke-opacity:1"
             id="path385"
             inkscape:connector-curvature="0" />
        </g>
        <g
           id="g387"
           transform="matrix(0.35277777,0,0,-0.35277777,190.42609,143.60198)">
          <path
             d="m 0,0 c 0,0 -0.996,-10.739 1.229,-23.378 2.226,-12.64 12.76,-25.777 12.76,-25.777 0,0 -14.841,12.379 -17.066,25.018 C -5.302,-11.498 0,0 0,0"
             style="fill:#ffffff;fill-opacity:1;fill-rule:nonzero;stroke:none"
             id="path389"
             inkscape:connector-curvature="0" />
        </g>
        <g
           id="g391"
           transform="matrix(0.35277777,0,0,-0.35277777,190.42609,143.60198)">
          <path
             d="m 0,0 c 0,0 -0.996,-10.739 1.229,-23.378 2.226,-12.64 12.76,-25.777 12.76,-25.777 0,0 -14.841,12.379 -17.066,25.018 C -5.302,-11.498 0,0 0,0 Z"
             style="fill:none;stroke:#000000;stroke-width:1;stroke-linecap:butt;stroke-linejoin:miter;stroke-miterlimit:10;stroke-dasharray:none;stroke-opacity:1"
             id="path393"
             inkscape:connector-curvature="0" />
        </g>
        <g
           id="g395"
           transform="matrix(0.35277777,0,0,-0.35277777,260.19011,156.87475)">
          <path
             d="m 0,0 c 0,0 5.181,4.833 10.807,16.367 5.627,11.534 10.807,19.589 10.807,19.589 0,0 -2.486,-9.638 -8.112,-21.172 C 7.875,3.25 0,0 0,0"
             style="fill:#ffffff;fill-opacity:1;fill-rule:nonzero;stroke:none"
             id="path397"
             inkscape:connector-curvature="0" />
        </g>
        <g
           id="g399"
           transform="matrix(0.35277777,0,0,-0.35277777,260.19011,156.87475)">
          <path
             d="m 0,0 c 0,0 5.181,4.833 10.807,16.367 5.627,11.534 10.807,19.589 10.807,19.589 0,0 -2.486,-9.638 -8.112,-21.172 C 7.875,3.25 0,0 0,0 Z"
             style="fill:none;stroke:#000000;stroke-width:1;stroke-linecap:butt;stroke-linejoin:miter;stroke-miterlimit:10;stroke-dasharray:none;stroke-opacity:1"
             id="path401"
             inkscape:connector-curvature="0" />
        </g>
      </g>
    </g>
    <flowRoot
       xml:space="preserve"
       id="flowRoot6016"
       style="font-style:normal;font-variant:normal;font-weight:normal;font-stretch:normal;font-size:48px;line-height:1.25;font-family:Arial;-inkscape-font-specification:'Arial, Normal';font-variant-ligatures:normal;font-variant-caps:normal;font-variant-numeric:normal;font-feature-settings:normal;text-align:start;letter-spacing:0px;word-spacing:0px;writing-mode:lr-tb;text-anchor:start;fill:#000000;fill-opacity:1;stroke:none"><flowRegion
         id="flowRegion6018"
         style="font-style:normal;font-variant:normal;font-weight:normal;font-stretch:normal;font-size:48px;font-family:Arial;-inkscape-font-specification:'Arial, Normal';font-variant-ligatures:normal;font-variant-caps:normal;font-variant-numeric:normal;font-feature-settings:normal;text-align:start;writing-mode:lr-tb;text-anchor:start"><rect
           id="rect6020"
           width="165.72815"
           height="106.06602"
           x="528.12036"
           y="930.27502"
           style="-inkscape-font-specification:'Arial, Normal';font-family:Arial;font-weight:normal;font-style:normal;font-stretch:normal;font-variant:normal;font-size:48px;text-anchor:start;text-align:start;writing-mode:lr;font-variant-ligatures:normal;font-variant-caps:normal;font-variant-numeric:normal;font-feature-settings:normal;" /></flowRegion><flowPara
         id="flowPara6022" /></flowRoot>
    <flowRoot
       xml:space="preserve"
       id="flowRoot6024"
       style="font-style:normal;font-variant:normal;font-weight:normal;font-stretch:normal;font-size:48px;line-height:1.25;font-family:Arial;-inkscape-font-specification:'Arial, Normal';font-variant-ligatures:normal;font-variant-caps:normal;font-variant-numeric:normal;font-feature-settings:normal;text-align:start;letter-spacing:0px;word-spacing:0px;writing-mode:lr-tb;text-anchor:start;fill:#000000;fill-opacity:1;stroke:none"><flowRegion
         id="flowRegion6026"
         style="font-style:normal;font-variant:normal;font-weight:normal;font-stretch:normal;font-size:48px;font-family:Arial;-inkscape-font-specification:'Arial, Normal';font-variant-ligatures:normal;font-variant-caps:normal;font-variant-numeric:normal;font-feature-settings:normal;text-align:start;writing-mode:lr-tb;text-anchor:start"><rect
           id="rect6028"
           width="317.1875"
           height="160.15625"
           x="527.34375"
           y="916.26971"
           style="-inkscape-font-specification:'Arial, Normal';font-family:Arial;font-weight:normal;font-style:normal;font-stretch:normal;font-variant:normal;font-size:48px;text-anchor:start;text-align:start;writing-mode:lr;font-variant-ligatures:normal;font-variant-caps:normal;font-variant-numeric:normal;font-feature-settings:normal;" /></flowRegion><flowPara
         id="flowPara6030" /></flowRoot>
    <flowRoot
       xml:space="preserve"
       id="flowRoot6221"
       style="font-style:normal;font-variant:normal;font-weight:normal;font-stretch:normal;font-size:48px;line-height:1.25;font-family:Arial;-inkscape-font-specification:'Arial, Normal';font-variant-ligatures:normal;font-variant-caps:normal;font-variant-numeric:normal;font-feature-settings:normal;text-align:start;letter-spacing:0px;word-spacing:0px;writing-mode:lr-tb;text-anchor:start;fill:#000000;fill-opacity:1;stroke:none"><flowRegion
         id="flowRegion6223"
         style="font-style:normal;font-variant:normal;font-weight:normal;font-stretch:normal;font-size:48px;font-family:Arial;-inkscape-font-specification:'Arial, Normal';font-variant-ligatures:normal;font-variant-caps:normal;font-variant-numeric:normal;font-feature-settings:normal;text-align:start;writing-mode:lr-tb;text-anchor:start"><rect
           id="rect6225"
           width="57.452427"
           height="503.81357"
           x="1829.6388"
           y="1414.2013"
           style="-inkscape-font-specification:'Arial, Normal';font-family:Arial;font-weight:normal;font-style:normal;font-stretch:normal;font-variant:normal;font-size:48px;text-anchor:start;text-align:start;writing-mode:lr;font-variant-ligatures:normal;font-variant-caps:normal;font-variant-numeric:normal;font-feature-settings:normal;" /></flowRegion><flowPara
         id="flowPara6227" /></flowRoot>
    <flowRoot
       xml:space="preserve"
       style="font-style:normal;font-variant:normal;font-weight:normal;font-stretch:normal;font-size:12.7px;line-height:1.25;font-family:Arial;-inkscape-font-specification:'Arial, Normal';font-variant-ligatures:normal;font-variant-caps:normal;font-variant-numeric:normal;font-feature-settings:normal;text-align:start;letter-spacing:0px;word-spacing:0px;writing-mode:lr-tb;text-anchor:start;fill:#ffffff;fill-opacity:1;stroke:none;stroke-width:0.264583"
       id="flowRoot6289"><flowRegion
         id="flowRegion6291"
         style="font-style:normal;font-variant:normal;font-weight:normal;font-stretch:normal;font-size:12.7px;font-family:Arial;-inkscape-font-specification:'Arial, Normal';font-variant-ligatures:normal;font-variant-caps:normal;font-variant-numeric:normal;font-feature-settings:normal;text-align:start;writing-mode:lr-tb;text-anchor:start;fill:#ffffff" /><flowPara
         id="flowPara6295"
         style="font-style:normal;font-variant:normal;font-weight:normal;font-stretch:normal;font-size:12.7px;font-family:Arial;-inkscape-font-specification:'Arial, Normal';font-variant-ligatures:normal;font-variant-caps:normal;font-variant-numeric:normal;font-feature-settings:normal;text-align:start;writing-mode:lr-tb;text-anchor:start" /></flowRoot>
    <flowRoot
       xml:space="preserve"
       id="flowRoot6309"
       style="font-style:normal;font-variant:normal;font-weight:normal;font-stretch:normal;font-size:48px;line-height:1.25;font-family:Arial;-inkscape-font-specification:'Arial, Normal';font-variant-ligatures:normal;font-variant-caps:normal;font-variant-numeric:normal;font-feature-settings:normal;text-align:start;letter-spacing:0px;word-spacing:0px;writing-mode:lr-tb;text-anchor:start;fill:#000000;fill-opacity:1;stroke:none"><flowRegion
         id="flowRegion6311"
         style="font-style:normal;font-variant:normal;font-weight:normal;font-stretch:normal;font-size:48px;font-family:Arial;-inkscape-font-specification:'Arial, Normal';font-variant-ligatures:normal;font-variant-caps:normal;font-variant-numeric:normal;font-feature-settings:normal;text-align:start;writing-mode:lr-tb;text-anchor:start"><rect
           id="rect6313"
           width="49.166019"
           height="83.416504"
           x="665.67474"
           y="820.34204"
           style="-inkscape-font-specification:'Arial, Normal';font-family:Arial;font-weight:normal;font-style:normal;font-stretch:normal;font-variant:normal;font-size:48px;text-anchor:start;text-align:start;writing-mode:lr;font-variant-ligatures:normal;font-variant-caps:normal;font-variant-numeric:normal;font-feature-settings:normal;" /></flowRegion><flowPara
         id="flowPara6315" /></flowRoot>
    <flowRoot
       xml:space="preserve"
       style="font-style:normal;font-variant:normal;font-weight:normal;font-stretch:normal;font-size:12.7px;line-height:1.25;font-family:Arial;-inkscape-font-specification:'Arial, Normal';font-variant-ligatures:normal;font-variant-caps:normal;font-variant-numeric:normal;font-feature-settings:normal;text-align:start;letter-spacing:0px;word-spacing:0px;writing-mode:lr-tb;text-anchor:start;fill:#ffffff;fill-opacity:1;stroke:none;stroke-width:0.264583"
       id="flowRoot6413"
       transform="matrix(0.2106316,0,0,0.2106316,89.923526,82.62252)"><flowRegion
         id="flowRegion6415"
         style="font-style:normal;font-variant:normal;font-weight:normal;font-stretch:normal;font-size:12.7px;font-family:Arial;-inkscape-font-specification:'Arial, Normal';font-variant-ligatures:normal;font-variant-caps:normal;font-variant-numeric:normal;font-feature-settings:normal;text-align:start;writing-mode:lr-tb;text-anchor:start;fill:#ffffff" /><flowPara
         id="flowPara6419"
         style="font-style:normal;font-variant:normal;font-weight:normal;font-stretch:normal;font-size:12.7px;font-family:Arial;-inkscape-font-specification:'Arial, Normal';font-variant-ligatures:normal;font-variant-caps:normal;font-variant-numeric:normal;font-feature-settings:normal;text-align:start;writing-mode:lr-tb;text-anchor:start"><flowSpan
   style="font-style:italic"
   id="flowSpan6429">Your keyboard is your saddle.<flowSpan
   style="font-weight:bold"
   id="flowSpan6461"> </flowSpan><flowSpan
   style="font-style:normal"
   id="flowSpan6431"><flowSpan
   style="font-weight:bold"
   id="flowSpan6463">Plug it in, or don't plug it in. It is the same</flowSpan>.</flowSpan> The arrow keys are not your friends.</flowSpan> <flowSpan
   style="font-weight:bold"
   id="flowSpan6465">You have opposable thumbs, use them.</flowSpan> <flowSpan
   style="font-style:italic"
   id="flowSpan6437">65% is bloat.</flowSpan> <flowSpan
   style="font-weight:bold"
   id="flowSpan6467">The mouse is vermin</flowSpan><flowSpan
   style="font-style:italic"
   id="flowSpan6425"><flowSpan
   style="font-weight:bold"
   id="flowSpan6469">.</flowSpan> Vim is the only text editor.</flowSpan> <flowSpan
   style="font-weight:bold"
   id="flowSpan6471">Time is an illusion.</flowSpan> <flowSpan
   style="font-style:italic"
   id="flowSpan6445">War, what is it good for? Absolutely nothing. Say it again. </flowSpan><flowSpan
   style="font-weight:bold"
   id="flowSpan6473">Shine on you crazy diamond.</flowSpan> <flowSpan
   style="font-style:italic"
   id="flowSpan6447">Build for yourself the toolchain of the gods.</flowSpan><flowSpan
   style="font-weight:bold"
   id="flowSpan6475"> Be mindful of the Unix philosophy.</flowSpan> <flowSpan
   style="font-style:italic"
   id="flowSpan6449">Rise like lions out of slumber.</flowSpan> <flowSpan
   style="font-weight:bold"
   id="flowSpan6477">As simple as possible but no simpler.</flowSpan> <flowSpan
   style="font-style:italic"
   id="flowSpan6451">This machine kills fascists.</flowSpan><flowSpan
   style="font-weight:bold"
   id="flowSpan6479"> I have a keybinding for that. </flowSpan><flowSpan
   style="font-style:italic"
   id="flowSpan6453">The revolution will not be televised.</flowSpan> <flowSpan
   style="font-weight:bold"
   id="flowSpan6481">All property is theft.</flowSpan> <flowSpan
   style="font-style:italic"
   id="flowSpan6455">Hold infinity in the palm of your hand.</flowSpan> <flowSpan
   style="font-weight:bold"
   id="flowSpan6483">Hairs are your aerials.</flowSpan> <flowSpan
   style="font-style:italic"
   id="flowSpan6457">This device does not approve of Microsoft Windows.</flowSpan> <flowSpan
   style="font-weight:bold"
   id="flowSpan6485">Education is a system of imposed ignorance.</flowSpan> <flowSpan
   style="font-style:italic"
   id="flowSpan6459">Break on through to the other side.<flowSpan
   style="font-weight:bold"
   id="flowSpan6487"> </flowSpan></flowSpan><flowSpan
   style="font-weight:bold"
   id="flowSpan6489">The sin of property we do disdain.</flowSpan> <flowSpan
   style="font-style:italic"
   id="flowSpan6491">All you need is love. </flowSpan><flowSpan
   style="font-weight:bold"
   id="flowSpan6493">Jesus died for somebody's sins, but not mine.</flowSpan> <flowSpan
   style="font-style:italic"
   id="flowSpan6495">Stay on the home row and don't get sick.</flowSpan> <flowSpan
   style="font-weight:bold"
   id="flowSpan6497">No man has any right to buy and sell the earth for private gain.</flowSpan> <flowSpan
   style="font-style:italic"
   id="flowSpan6499">There is a crack in everything, that's how the light gets in. </flowSpan><flowSpan
   style="font-weight:bold"
   id="flowSpan6501">Ye are many, they are few. </flowSpan><flowSpan
   style="font-style:italic"
   id="flowSpan6503">Until the colour of a man's skin is of no more significance than the colour of his eyes, me say war. </flowSpan><flowSpan
   style="font-weight:bold"
   id="flowSpan6505">From each according to his ability, to each according to his needs. </flowSpan><flowSpan
   style="font-style:italic"
   id="flowSpan6507">Can you tell a green field from a cold steel rail? </flowSpan><flowSpan
   style="font-weight:bold"
   id="flowSpan6509">Agitate, educate, organise. </flowSpan><flowSpan
   style="font-style:italic"
   id="flowSpan6511">All you fascists bound to lose. </flowSpan><flowSpan
   style="font-weight:bold"
   id="flowSpan6513">There is power in a union.</flowSpan> <flowSpan
   style="font-style:italic"
   id="flowSpan6515">Love is all you need. </flowSpan><flowSpan
   style="font-weight:bold"
   id="flowSpan6517">Raise the scarlet standard high. </flowSpan><flowSpan
   style="font-style:italic"
   id="flowSpan6519">This earth divided we will make whole so it will be a common treasury for all. </flowSpan><flowSpan
   style="font-weight:bold"
   id="flowSpan6521">Oh Jeremy Corbyn! </flowSpan><flowSpan
   style="font-style:italic"
   id="flowSpan6523">This device has the following essential feature: fully automated luxury communism. <flowSpan
   style="font-style:normal;font-weight:bold"
   id="flowSpan6531">For he on honey-dew hath fed, and drunk the milk of Paradise.</flowSpan> </flowSpan><flowSpan
   id="flowSpan6539"
   style="font-style:italic;font-weight:normal">I am the milkman of human kindness. I will leave an extra pint.</flowSpan><flowSpan
   style="font-weight:bold"
   id="flowSpan6527"> Love, love, love.</flowSpan></flowPara></flowRoot>
    <g
       id="g6687"
       transform="translate(-19.666052,-95.274608)"
       style="fill:#ffffff"
       inkscape:export-filename="/home/david/projects/thefortyfive/rect1150.png"
       inkscape:export-xdpi="500"
       inkscape:export-ydpi="500">
      <text
         id="text6671"
         y="224.94162"
         x="49.382809"
         style="font-style:normal;font-variant:normal;font-weight:500;font-stretch:normal;font-size:12.7px;line-height:1.25;font-family:'3270Medium Nerd Font';-inkscape-font-specification:'3270Medium Nerd Font, Medium';font-variant-ligatures:normal;font-variant-caps:normal;font-variant-numeric:normal;font-feature-settings:normal;text-align:start;letter-spacing:0px;word-spacing:0px;writing-mode:lr-tb;text-anchor:start;fill:#ffffff;fill-opacity:1;stroke:none;stroke-width:0.264583"
         xml:space="preserve"><tspan
           style="font-style:normal;font-variant:normal;font-weight:normal;font-stretch:normal;font-size:8.46667px;font-family:'SF Comic Script Extended';-inkscape-font-specification:'SF Comic Script Extended, Normal';font-variant-ligatures:normal;font-variant-caps:normal;font-variant-numeric:normal;font-feature-settings:normal;text-align:start;writing-mode:lr-tb;text-anchor:start;fill:#ffffff;stroke-width:0.264583"
           y="224.94162"
           x="49.382809"
           id="tspan6669"
           sodipodi:role="line">The</tspan></text>
      <text
         id="text6675"
         y="243.9671"
         x="54.568901"
         style="font-style:normal;font-variant:normal;font-weight:500;font-stretch:normal;font-size:12.7px;line-height:1.25;font-family:'3270Medium Nerd Font';-inkscape-font-specification:'3270Medium Nerd Font, Medium';font-variant-ligatures:normal;font-variant-caps:normal;font-variant-numeric:normal;font-feature-settings:normal;text-align:start;letter-spacing:0px;word-spacing:0px;writing-mode:lr-tb;text-anchor:start;fill:#ffffff;fill-opacity:1;stroke:none;stroke-width:0.264583"
         xml:space="preserve"><tspan
           style="font-style:normal;font-variant:normal;font-weight:normal;font-stretch:normal;font-size:12.7px;font-family:'SF Comic Script Extended';-inkscape-font-specification:'SF Comic Script Extended, Normal';font-variant-ligatures:normal;font-variant-caps:normal;font-variant-numeric:normal;font-feature-settings:normal;text-align:start;writing-mode:lr-tb;text-anchor:start;fill:#ffffff;stroke-width:0.264583"
           y="243.9671"
           x="54.568901"
           id="tspan6673"
           sodipodi:role="line">Forty</tspan></text>
      <text
         id="text6679"
         y="253.90619"
         x="58.661469"
         style="font-style:normal;font-variant:normal;font-weight:500;font-stretch:normal;font-size:12.7px;line-height:1.25;font-family:'3270Medium Nerd Font';-inkscape-font-specification:'3270Medium Nerd Font, Medium';font-variant-ligatures:normal;font-variant-caps:normal;font-variant-numeric:normal;font-feature-settings:normal;text-align:start;letter-spacing:0px;word-spacing:0px;writing-mode:lr-tb;text-anchor:start;fill:#ffffff;fill-opacity:1;stroke:none;stroke-width:0.264583"
         xml:space="preserve"><tspan
           style="font-style:normal;font-variant:normal;font-weight:normal;font-stretch:normal;font-size:12.7px;font-family:'SF Comic Script Extended';-inkscape-font-specification:'SF Comic Script Extended, Normal';font-variant-ligatures:normal;font-variant-caps:normal;font-variant-numeric:normal;font-feature-settings:normal;text-align:start;writing-mode:lr-tb;text-anchor:start;fill:#ffffff;stroke-width:0.264583"
           y="253.90619"
           x="58.661469"
           id="tspan6677"
           sodipodi:role="line">Five</tspan></text>
      <text
         id="text6675-6"
         y="234.29449"
         x="51.31739"
         style="font-style:normal;font-variant:normal;font-weight:500;font-stretch:normal;font-size:12.7px;line-height:1.25;font-family:'3270Medium Nerd Font';-inkscape-font-specification:'3270Medium Nerd Font, Medium';font-variant-ligatures:normal;font-variant-caps:normal;font-variant-numeric:normal;font-feature-settings:normal;text-align:start;letter-spacing:0px;word-spacing:0px;writing-mode:lr-tb;text-anchor:start;fill:#ffffff;fill-opacity:1;stroke:none;stroke-width:0.264583"
         xml:space="preserve"><tspan
           style="font-style:normal;font-variant:normal;font-weight:normal;font-stretch:normal;font-size:12.7px;font-family:'SF Comic Script Extended';-inkscape-font-specification:'SF Comic Script Extended, Normal';font-variant-ligatures:normal;font-variant-caps:normal;font-variant-numeric:normal;font-feature-settings:normal;text-align:start;writing-mode:lr-tb;text-anchor:start;fill:#ffffff;stroke-width:0.264583"
           y="234.29449"
           x="51.31739"
           id="tspan6673-6"
           sodipodi:role="line">Split</tspan></text>
    </g>
    <circle
       style="fill:none;stroke-width:0.26458332"
       id="path6695"
       cx="-26.995667"
       cy="-260.66693"
       r="25.344368"
       transform="matrix(0.83957014,-0.54325131,-0.54325131,-0.83957014,0,0)" />
    <text
       xml:space="preserve"
       style="font-style:normal;font-variant:normal;font-weight:500;font-stretch:normal;font-size:12.7px;line-height:1.25;font-family:'3270Medium Nerd Font';-inkscape-font-specification:'3270Medium Nerd Font, Medium';font-variant-ligatures:normal;font-variant-caps:normal;font-variant-numeric:normal;font-feature-settings:normal;text-align:start;letter-spacing:0px;word-spacing:0px;writing-mode:lr-tb;text-anchor:start;fill:#ffffff;fill-opacity:1;stroke:none;stroke-width:0.264583"
       x="31.344719"
       y="171.94217"
       id="text6704"
       inkscape:export-filename="/home/david/projects/thefortyfive/rect1150.png"
       inkscape:export-xdpi="500"
       inkscape:export-ydpi="500"><tspan
         sodipodi:role="line"
         x="31.344719"
         y="171.94217"
         style="font-style:italic;font-variant:normal;font-weight:500;font-stretch:normal;font-size:4.93889px;font-family:Z003;-inkscape-font-specification:'Z003, Medium Italic';font-variant-ligatures:normal;font-variant-caps:normal;font-variant-numeric:normal;font-feature-settings:normal;text-align:start;writing-mode:lr-tb;text-anchor:start;fill:#ffffff;stroke-width:0.264583"
         id="tspan6710">with love from </tspan></text>
    <text
       xml:space="preserve"
       style="font-style:normal;font-variant:normal;font-weight:500;font-stretch:normal;font-size:12.7px;line-height:1.25;font-family:'3270Medium Nerd Font';-inkscape-font-specification:'3270Medium Nerd Font, Medium';font-variant-ligatures:normal;font-variant-caps:normal;font-variant-numeric:normal;font-feature-settings:normal;text-align:start;letter-spacing:0px;word-spacing:0px;writing-mode:lr-tb;text-anchor:start;fill:#ffffff;fill-opacity:1;stroke:none;stroke-width:0.264583"
       x="34.994301"
       y="177.71367"
       id="text6716"
       inkscape:export-filename="/home/david/projects/thefortyfive/rect1150.png"
       inkscape:export-xdpi="500"
       inkscape:export-ydpi="500"><tspan
         sodipodi:role="line"
         id="tspan6714"
         x="34.994301"
         y="177.71367"
         style="font-style:italic;font-variant:normal;font-weight:500;font-stretch:normal;font-size:5.64444px;font-family:Z003;-inkscape-font-specification:'Z003, Medium Italic';font-variant-ligatures:normal;font-variant-caps:normal;font-variant-numeric:normal;font-feature-settings:normal;text-align:start;writing-mode:lr-tb;text-anchor:start;fill:#ffffff;stroke-width:0.264583">Old Badger</tspan></text>
    <g
       id="g415"
       transform="matrix(0.20719663,0,0,-0.20719663,61.768638,171.39196)"
       style="fill:#ffffff"
       inkscape:export-filename="/home/david/projects/thefortyfive/rect1150.png"
       inkscape:export-xdpi="500"
       inkscape:export-ydpi="500">
      <path
         d="m 0,-2.5539347 -0.05,-0.041 0.068,0.231 c -0.038,-0.128 0.061,-0.009 -0.018,-0.19 m 1.825,-1.91 c 0.088,0.191 0.095,0.352 0.159,0.551 0.057,0.092 0.046,-0.095 0.021,-0.251 -0.044,-0.069 -0.138,-0.313 -0.18,-0.3 m -2.18,0.708 0.004,0.086 c 0.026,0.103 0.123,0.286 0.109,0.134 l 0.012,-0.032 c -0.006,0.277 0.196,0.432 0.222,0.749 l 0.094,0.254 c 0.024,-0.019 -0.037,-0.366 0.074,-0.058 0.008,0.016 0.016,0.035 0.023,0.054 0.01,0.035 0.021,0.068 0.032,0.101 0.023,0.087 0.043,0.177 0.057,0.224 l -0.004,0.074 c 0.078,0.198 0.065,0.332 0.165,0.577 0.004,0.117 -0.06,-0.062 -0.076,-0.054 -0.028,-0.115 -0.08,-0.172 -0.117,-0.237 -0.006,-0.004 -0.01,-0.003 -0.013,-0.002 l -0.06,-0.271 c 0.044,0.234 -0.109,-0.076 0.047,0.289 -0.016,-0.07 -0.002,-0.044 0.009,-0.019 -0.012,0.011 -0.007,0.061 0.014,0.134 0.168,0.556 0.108,-0.009 0.29,0.371 -0.007,0.014 0.002,0.074 -0.022,0.04 0.096,0.289 0.238,0.38599998 0.33,0.72199998 0.056,0.114 0.109,0.138 0.16,0.214 -0.026,-0.101 0.013,-0.085 0.057,-0.057 0.044,0.073 0.088,0.144 0.134,0.215 -0.006,-0.003 -0.014,-0.008 -0.02,-0.009 0.139,0.198 -0.084,0.016 0.097,0.247 0.054,0.086 0.055,0.004 0.104,0.038 0.005,-0.004 0.013,0 0.023,0.007 0.028,0.036 0.057,0.072 0.086,0.107 l 0.061,0.141 c -0.066,-0.063 -0.215,-0.214 -0.147,-0.102 0.092,0.089 0.302,0.284 0.299,0.218 0.005,-0.006 10e-4,-0.017 -0.005,-0.032 0.212,0.213 0.448,0.388 0.711,0.517 0.097,-0.214 0.127,-0.529 0.108,-0.911 0.076,-0.236 0.148,-0.448 0.212,-0.255 0.009,0.006 0.015,-0.004 0.022,-0.038 0.019,-0.082 -0.036,-0.32 -0.039,-0.345 0.005,-0.001 0.002,-0.054 0.003,-0.081 -0.044,-0.128 -0.07,-0.018 -0.086,-0.016 0.046,-0.084 0.032,-0.43399998 -0.071,-0.73499998 -0.116,-0.14 -0.039,-0.449 -0.162,-0.557 -0.012,-0.293 -0.196,-0.626 -0.239,-0.911 -0.054,-0.067 -0.085,-0.06 -0.143,-0.179 0.008,-0.109 -0.069,-0.306 -0.079,-0.41 -0.025,-0.047 -0.036,-0.044 -0.063,-0.091 0.017,-0.193 -0.065,-0.521 -0.152,-0.795 l -0.133,-0.26 c -0.016,-0.103 -0.025,-0.196 -0.032,-0.285 -0.185,-0.423 -0.392,-0.8 -0.587,-1.079 -0.008,-0.01 -0.017,-0.018 -0.025,-0.027 -0.056,-0.174 -0.106,-0.332 -0.149,-0.476 0.024,-0.039 0.009,-0.065 -0.026,-0.085 -0.015,-0.052 -0.03,-0.102 -0.044,-0.15 -0.056,0.04 -0.111,0.069 -0.166,0.093 -0.059,-0.013 -0.11,-0.028 -0.128,-0.053 l -0.075,-0.012 c -0.289,0.115 -0.725,-0.105 -1.057,0.167 0.128,-0.148 -0.107,-0.039 -0.171,0.01 -0.118,0.537 0.075,0.636 0.167,1.059 0.02,0.159 0,0.2 0,0.323 0.033,0.17 0.134,0.279 0.083,0.378 l 0.105,0.274 c -0.009,-0.049 0.011,-0.03 0.027,0.025 0.043,0.262 0.191,0.634 0.15,0.782 m 0.578,1.364 c -0.03,-0.073 -0.093,-0.218 -0.077,-0.113 0.027,0.047 0.048,0.095 0.072,0.169 z m 24.866,-2.234 -0.05,-0.044 0.062,0.241 c -0.034,-0.134 0.062,-0.006 -0.012,-0.197 m 2.531,-1.047 c 0.066,0.212 0.042,0.383 0.074,0.598 0.041,0.107 0.061,-0.088 0.062,-0.256 -0.028,-0.08 -0.094,-0.349 -0.136,-0.342 m -1.491,4.365 c 0.102,0.65099998 0.115,1.25199998 -0.046,1.75399998 0.489,-0.358 0.825,-0.875 1.044,-1.48699998 0.163,-0.199 0.308,-0.374 0.292,-0.166 0.006,0.01 0.018,0.003 0.038,-0.028 0.064,-0.072 0.081,-0.328 0.089,-0.354 0.005,0.001 0.022,-0.053 0.033,-0.079 0.008,-0.143 -0.058,-0.041 -0.074,-0.045 0.085,-0.068 0.182,-0.421 0.18,-0.758 -0.059,-0.173 0.086,-0.464 0.002,-0.608 0.075,-0.302 -0.038,-0.686 -0.013,-0.987 -0.039,-0.08 -0.072,-0.079 -0.105,-0.214 0.03,-0.11 -0.008,-0.326 0.003,-0.435 -0.017,-0.054 -0.028,-0.053 -0.046,-0.106 0.045,-0.194 0.028,-0.549 -0.027,-0.844 l -0.098,-0.288 c -0.001,-0.11 0,-0.206 0.002,-0.3 -0.136,-0.465 -0.316,-0.877 -0.496,-1.178 -0.008,-0.011 -0.015,-0.019 -0.023,-0.029 -0.086,-0.332 -0.175,-0.647 -0.265,-0.937 0.023,-0.05 0.043,-0.095 0.062,-0.125 l -0.001,-0.084 c -0.145,-0.122 0.024,-0.474 -0.393,-0.388 -0.056,0.035 -0.112,0.067 -0.169,0.098 -0.023,-0.011 -0.016,-0.008 0,0 -0.111,0.065 -0.224,0.127 -0.33,0.205 0.114,-0.161 -0.086,-0.035 -0.167,-0.031 -0.283,0.283 -0.514,0.464 -0.642,0.894 -0.071,0.157 -0.113,0.187 -0.182,0.308 -0.063,0.188 0.02,0.337 -0.068,0.42 0.004,0.108 -0.004,0.215 0.012,0.318 0,-0.052 0.018,-0.029 0.024,0.033 -0.012,0.285 0.07,0.699 0.03,0.845 l -0.003,0.091 c 0.018,0.113 0.096,0.313 0.096,0.151 l 0.014,-0.032 c -0.037,0.292 0.181,0.461 0.186,0.794 l 0.088,0.268 c 0.024,-0.02 -0.032,-0.38 0.075,-0.058 0.006,0.013 0.012,0.028 0.017,0.042 0.013,0.051 0.027,0.102 0.041,0.154 0.016,0.08 0.029,0.16 0.042,0.203 l -0.008,0.076 c 0.073,0.208 0.048,0.348 0.134,0.605 -0.003,0.12 -0.057,-0.068 -0.073,-0.061 -0.021,-0.12 -0.07,-0.183 -0.103,-0.251 -0.005,-0.005 -0.009,-0.004 -0.013,-0.003 l -0.047,-0.282 c 0.033,0.243 -0.104,-0.083 0.033,0.299 -0.01,-0.072 0,-0.046 0.011,-0.018 -0.014,0.009 -0.012,0.06 0.005,0.137 0.129,0.58 0.116,-0.003 0.26,0.406 -0.009,0.013 -0.007,0.076 -0.028,0.039 0.065,0.302 0.19,0.426 0.212,0.779 0.025,0.127 0.067,0.164 0.095,0.253 0.004,-0.119 0.044,-0.072 0.082,-0.026 0.021,0.081 0.04,0.161 0.059,0.242 -0.005,-0.007 -0.011,-0.016 -0.017,-0.019 0.055,0.242 -0.079,-0.015 -0.01,0.272 0.014,0.101 0.05,0.027 0.08,0.08 0.008,-0.003 0.02,0.014 0.03,0.037 0.006,0.031 0.012,0.064 0.018,0.096 l -0.023,0.178 c -0.024,-0.09 -0.074,-0.294 -0.073,-0.163 0.036,0.122 0.108,0.398 0.138,0.345 0.01,-0.002 0.015,-0.017 0.016,-0.038 m -0.822,-3.14 c -0.027,-0.076 -0.085,-0.229 -0.073,-0.121 0.025,0.05 0.044,0.101 0.066,0.179 z m -17.744,5.33399998 -0.058,-0.05 0.104,0.28200002 C 7.553,0.96306528 7.672,1.1070653 7.563,0.88606528 M 9.996,1.0700653 c 0.084,0.242 0.081,0.44 0.152,0.685 0.059,0.117 0.044,-0.109 0.021,-0.298 -0.043,-0.089 -0.13,-0.396 -0.173,-0.387 M 7.073,-0.49493472 c 0.031,0.132 0.155,0.359 0.122,0.17 l 0.008,-0.038 c 0.023,0.341 0.245,0.538 0.317,0.925 l 0.13,0.313 c 0.019,-0.024 -0.088,-0.449 0.067,-0.072 0.01,0.018 0.019,0.038 0.029,0.059 0.02,0.054 0.04,0.107 0.061,0.16100002 0.032,0.097 0.059,0.192 0.08,0.243 l 0.006,0.091 c 0.113,0.239 0.113,0.405 0.251,0.703 0.023,0.141 -0.072,-0.075 -0.085,-0.067 -0.045,-0.141 -0.106,-0.21 -0.153,-0.29 -0.007,-0.005 -0.01,-0.004 -0.013,-0.003 l -0.102,-0.328 c 0.079,0.284 -0.122,-0.093 0.091,0.349 -0.027,-0.084 -0.009,-0.053 0.007,-0.021 -0.012,0.012 -0.001,0.072 0.031,0.161 0.249,0.675 0.115,-0.01 0.349,0.458 -0.007,0.016 0.009,0.09 -0.019,0.047 0.134,0.351 0.291,0.479 0.411,0.89 0.065,0.142 0.118,0.179 0.174,0.277 -0.031,-0.129 0.015,-0.096 0.064,-0.054 0.047,0.095 0.095,0.187 0.143,0.277 -0.007,-0.005 -0.016,-0.014 -0.021,-0.017 0.138,0.265 -0.088,10e-4 0.091,0.312 0.054,0.113 0.06,0.019 0.11,0.072 0.006,-0.004 0.015,0.005 0.027,0.017 0.026,0.047 0.053,0.094 0.078,0.14 l 0.049,0.187 c -0.063,-0.094 -0.198,-0.312 -0.142,-0.163 0.086,0.129 0.281,0.418 0.287,0.347 0.007,-0.006 0.004,-0.021 -0.002,-0.042 0.097,0.164 0.193,0.316 0.283,0.45 0.186,0.148 0.349,0.263 0.493,0.354 0.212,0.225 0.411,0.424 0.159,0.348 -0.013,0.002 -0.004,0.016 0.032,0.045 0.069,0.08 0.507,0.169 0.638,0.058 0,0.019 0.147,-0.078 0.187,-0.139 0.119,-0.308 -0.027,-0.084 -0.038,-0.1 0.17,-0.187 0.131,-0.668 -0.124,-1.075 -0.171,-0.123 -0.214,-0.484 -0.359,-0.592 -0.104,-0.329 -0.351,-0.711 -0.428,-1.055 -0.061,-0.081 -0.093,-0.073 -0.166,-0.219 -10e-4,-0.132 -0.092,-0.373 -0.106,-0.501 -0.028,-0.058 -0.04,-0.056 -0.067,-0.116 0.013,-0.233 -0.073,-0.64 -0.148,-0.984 L 9.751,0.74606528 c -0.011,-0.129 -0.016,-0.243 -0.018,-0.354 -0.161,-0.549 -0.347,-1.05 -0.538,-1.41999998 -0.008,-0.013 -0.016,-0.024 -0.024,-0.037 -0.092,-0.39 -0.192,-0.768 -0.306,-1.125 0.019,-0.057 0.035,-0.112 0.05,-0.146 l -0.009,-0.101 c -0.134,-0.24 -0.268,-0.686 -0.47,-0.87 l 0.003,-0.002 0.044,-0.03 0.012,-0.008 0.006,-0.004 v -0.001 c 0.193,0.008 0.044,0.002 -0.127,-0.004 -0.024,-0.043 -0.049,-0.087 -0.074,-0.129 -0.028,0.04 -0.06,0.074 -0.095,0.102 -0.006,10e-4 -0.012,10e-4 -0.017,0.002 0.1,-0.188 -0.097,-0.009 -0.17,-0.05 -0.162,0.1 -0.363,0.098 -0.559,0.102 -0.101,0.003 -0.206,0.006 -0.323,0.025 -0.249,0.183 -0.14,0.249 -0.22,0.397 -0.048,0.202 -0.088,0.247 -0.134,0.405 -0.004,0.227 0.065,0.393 0.005,0.505 l 0.08,0.367 c -0.005,-0.064 0.014,-0.036 0.026,0.035 0.032,0.338 0.195,0.81299998 0.169,0.99299998 z m 0.648,1.442 c 0.033,0.058 0.062,0.11600002 0.097,0.20700002 l -0.003,-0.068 C 7.775,0.9970653 7.689,0.82106528 7.721,0.94706528 m 13.705,-1.26 -0.052,-0.038 0.073,0.224 c -0.04,-0.124 0.062,-0.012 -0.021,-0.186 m 2.685,-0.408 c 0.053,0.095 0.049,-0.092 0.031,-0.25 -0.041,-0.071 -0.124,-0.31999998 -0.169,-0.30699998 0.087,0.193 0.079,0.35799998 0.138,0.55699998 m -3.059,-0.76899998 0.006,0.085 c 0.026,0.104 0.122,0.284 0.108,0.132 l 0.012,-0.03 c -0.012,0.275 0.202,0.42099998 0.232,0.73099998 l 0.101,0.247 c 0.023,-0.021 -0.05,-0.357 0.072,-0.061 0.008,0.014 0.015,0.028 0.021,0.045 0.014,0.039 0.028,0.078 0.041,0.117 0.023,0.081 0.042,0.163 0.057,0.206 l -0.003,0.073 c 0.083,0.191 0.064,0.325 0.161,0.562 0.003,0.114 -0.058,-0.06 -0.074,-0.053 -0.026,-0.111 -0.078,-0.167 -0.114,-0.229 -0.006,-0.004 -0.009,-0.003 -0.013,-0.001 l -0.061,-0.263 c 0.047,0.227 -0.107,-0.07099999731 0.048,0.279 -0.014,-0.066 -0.001,-0.043 0.009,-0.017 -0.011,0.009 -0.009,0.058 0.012,0.129 0.155,0.53900002 0.115,-0.012 0.277,0.363 -0.008,0.013 -0.003,0.073 -0.025,0.039 0.082,0.28000002 0.207,0.38900002 0.25,0.72100002 0.032,0.117 0.077,0.148 0.108,0.23 -0.001,-0.109 0.038,-0.074 0.077,-0.036 0.026,0.077 0.05,0.154 0.075,0.23 -0.007,-0.006 -0.014,-0.014 -0.02,-0.017 0.068,0.224 -0.084,-0.007 0.011,0.256 0.019,0.094 0.051,0.021 0.084,0.068 0.007,-0.003 0.016,0.008 0.024,0.024 0.011,0.035 0.021,0.07 0.032,0.105 l -0.014,0.163 c -0.028,-0.083 -0.091,-0.271 -0.082,-0.147 0.04,0.112 0.134,0.365 0.162,0.312 0.009,-0.003 0.011,-0.016 0.011,-0.035 0.086,0.348 0.146,0.681 0.167,0.992 0.363,-0.142 0.633,-0.375 0.829,-0.671 0.198,-0.146 0.37,-0.293 0.317,-0.095 0.004,0.01 0.016,0.004 0.044,-0.021 0.068,-0.062 0.118,-0.314 0.13,-0.338 0.005,10e-4 0.029,-0.05 0.044,-0.074 0.025,-0.139 -0.054,-0.045 -0.069,-0.051 0.091,-0.055 0.197,-0.403 0.194,-0.727 -0.084,-0.164 0.093,-0.452 -0.019,-0.584 0.049,-0.29200002 -0.073,-0.65100002 -0.087,-0.93400002 -0.045,-0.073 -0.073,-0.07 -0.119,-0.193 0.018,-0.107 -0.046,-0.305 -0.044,-0.41 -0.021,-0.048 -0.032,-0.047 -0.053,-0.095 0.029,-0.189 -0.039,-0.519 -0.118,-0.79199998 l -0.133,-0.257 c -0.015,-0.102 -0.024,-0.194 -0.03,-0.284 -0.195,-0.416 -0.424,-0.777 -0.643,-1.029 -0.009,-0.008 -0.018,-0.015 -0.026,-0.023 -0.131,-0.298 -0.266,-0.576 -0.4,-0.83 0.014,-0.05 0.025,-0.097 0.038,-0.128 l -0.013,-0.079 c -0.139,-0.152 -0.111,-0.299 -0.404,-0.432 -0.166,0.066 -0.333,0.132 -0.512,0.195 0.152,-0.104 -0.069,-0.061 -0.137,-0.099 -0.406,0.271 -0.48,0.493 -0.569,0.908 -0.048,0.156 -0.085,0.19 -0.135,0.311 -0.015,0.18 0.059,0.312 -0.015,0.4 0.005,0.102 0.04,0.195 0.059,0.292 -0.003,-0.05 0.015,-0.028 0.024,0.028 -0.003,0.274 0.146,0.645 0.095,0.792 m 0.52,1.21999998 c 0.028,0.045 0.049,0.091 0.074,0.163 l 0.004,-0.054 c -0.03,-0.071 -0.095,-0.209 -0.078,-0.109 m -6.761,2.73000002 -0.052,-0.035 0.075,0.212 c -0.041,-0.117 0.062,-0.013 -0.023,-0.177 m 2.178,-0.89 c -0.03,-0.067 -0.074,-0.307 -0.117,-0.302 0.049,0.19 0.022,0.337 0.049,0.526 0.039,0.09 0.062,-0.078 0.068,-0.224 m -2.569,-0.21 0.008,0.079 c 0.028,0.097 0.126,0.262 0.11,0.119 l 0.011,-0.029 c -0.002,0.259 0.197,0.393 0.242,0.685 l 0.105,0.23 c 0.023,-0.021 -0.051,-0.33 0.067,-0.069 0.024,0.067 0.052,0.132 0.078,0.198 0.018,0.062 0.033,0.122 0.046,0.155 l -0.002,0.072 c 0.098,0.171 0.087,0.301 0.202,0.518 0.012,0.11 -0.062,-0.051 -0.077,-0.042 -0.035,-0.104 -0.09,-0.152 -0.131,-0.21 -0.006,-0.003 -0.01,-0.002 -0.014,0 l -0.079,-0.246 c 0.062,0.213 -0.113,-0.061 0.069,0.264 -0.021,-0.064 -0.006,-0.041 0.008,-0.018 -0.012,0.011 -0.005,0.056 0.021,0.123 0.198,0.506 0.112,-0.023 0.302,0.32 -0.007,0.013 0.003,0.071 -0.021,0.041 0.12,0.255 0.271,0.327 0.379,0.634 0.052,0.107 0.106,0.122 0.167,0.183 -0.037,-0.089 0.005,-0.079 0.052,-0.061 0.058,0.077 0.115,0.155 0.176,0.226 0.049,0.084 -0.094,-0.001 0.065,0.172 0.057,0.076 0.054,-0.004 0.102,0.023 0.003,-0.004 0.007,-0.003 0.014,-10e-4 0.033,0.033 0.063,0.066 0.095,0.097 l 0.073,0.121 c -0.075,-0.044 -0.223,-0.17 -0.154,-0.071 0.1,0.067 0.322,0.214 0.314,0.155 0.098,0.077 0.199,0.149 0.304,0.214 0.197,-0.024 0.344,-0.074 0.452,-0.148 0.221,-0.079 0.419,-0.208 0.326,-0.022 0.001,0.014 0.016,0.007 0.05,-0.026 0.06,-0.151 0.216,-0.237 10e-4,-0.593 0.004,-0.003 -0.022,-0.037 -0.033,-0.056 -0.092,-0.06 -0.063,0.028 -0.075,0.039 -0.011,-0.082 -0.156,-0.313 -0.31,-0.53 -0.144,-0.081 -0.107,-0.36 -0.227,-0.439 -0.032,-0.248 -0.194,-0.543 -0.205,-0.805 -0.046,-0.064 -0.08,-0.059 -0.12,-0.173 0.022,-0.098 -0.027,-0.283 -0.017,-0.38 -0.018,-0.046 -0.028,-0.045 -0.045,-0.091 0.05,-0.173 0.031,-0.481 0.001,-0.746 l -0.081,-0.26 c 0.004,-0.096 0.012,-0.18400002 0.021,-0.26800002 -0.106,-0.421 -0.279,-0.81 -0.493,-1.05 -0.009,-0.008 -0.015,-0.013 -0.024,-0.02 -0.128,-0.291 -0.307,-0.518 -0.567,-0.649 -0.013,-0.046 -0.032,-0.09 -0.048,-0.12399998 l -0.069,-0.048 c -0.379,-0.098 -0.716,0.003 -1.051,0.114 0.147,-0.095 -0.065,-0.063 -0.135,-0.102 -0.08,0.041 -0.155,0.07 -0.228,0.096 -0.062,0.076 -0.016,-0.119 -0.166,0.17599998 l 0.023,0.106 c 0.03,0.14 0.06,0.287 0.132,0.462 0.015,0.148 -0.006,0.188 -0.009,0.303 0.026,0.159 0.132,0.258 0.079,0.351 l 0.103,0.254 c -0.009,-0.046 0.011,-0.028 0.028,0.021 0.039,0.247 0.188,0.58700002 0.155,0.72600002 m 0.537,1.134 c 0.027,0.042 0.049,0.085 0.074,0.152 l 0.004,-0.053 c -0.03,-0.065 -0.097,-0.195 -0.078,-0.099 m 6.886,-21.9520003 c 0.153,-0.266 0.53,-1.208 0.459,-1.233 -0.283,0.755 -0.658,1.233 -1.118,1.896 -0.206,0.366 0.314,-0.165 0.659,-0.663 M -2.93,-9.8159347 c -0.149,-0.2110003 -0.14,-0.4140003 -0.212,-0.6430003 -0.087,-0.104 -0.111,0.126 -0.098,0.32 0.076,0.076 0.23,0.3570003 0.31,0.3230003 m 28.455,-5.4880003 c 0.029,-0.268 -0.184,-0.654 -0.408,-0.952 l -0.319,-0.224 c -0.059,-0.123 -0.111,-0.235 -0.172,-0.341 -0.375,-0.291 -0.817,-0.442 -1.198,-0.494 l -0.015,-0.006 0.001,0.004 c -0.111,-0.014 -0.217,-0.021 -0.313,-0.019 -0.017,0.003 -0.031,0.008 -0.045,0.011 -0.192,-0.081 -0.391,-0.142 -0.594,-0.186 0.051,-0.021 0.102,-0.039 0.153,-0.05 -0.209,-0.059 -0.437,-0.142 -0.694,-0.033 -0.041,-0.027 -0.096,-0.043 -0.171,-0.04 0.11,-0.09 0.224,-0.172 0.337,-0.258 -0.002,-0.034 -0.027,-0.063 -0.068,-0.086 -0.515,0.111 -0.234,0.063 -0.396,0.119 -0.121,0.064 -0.229,0.179 -0.278,0.267 -0.367,0.702 -1.07,1.109 -0.825,1.85 0.028,-10e-4 0.057,0.003 0.085,0.01 -0.028,0.123 -0.048,0.25 -0.05,0.394 -0.036,-0.054 -0.078,-0.088 -0.051,-0.126 -0.288,-0.021 -0.117,1.135 -0.42,0.57 -0.198,-0.347 0.177,-0.764 0.026,-1.012 -0.26,-0.233 -0.388,0.588 -0.364,0.921 0.001,0.156 -10e-4,0.546 0.152,0.49 -0.323,0.835 0.659,1.224 0.573,1.935 0.129,0.205 0.336,0.172 0.432,0.462 -0.06,0.002 -0.087,0.03 -0.092,0.074 -0.042,-0.014 -0.076,-0.017 -0.09,10e-4 0.033,0.021 0.064,0.043 0.093,0.067 0.04,0.191 0.277,0.53 0.308,0.695 0.265,0.455 0.692,0.96 1.074,1.158 0.164,0.1430003 0.403,0.4330003 0.145,0.3290003 0.296,0.199 0.68,0.039 0.858,0.375 -0.381,-0.094 -0.412,-0.045 -0.656,-0.127 0.368,0.502 1.214,0.542 1.719,0.516 -0.001,0.011 0.023,0.019 0.051,0.027 0.788,-0.362 1.114,-0.905 1.169,-1.3460003 0.047,-0.022 0.094,-0.044 0.142,-0.068 0.081,-0.175 0.149,-0.355 0.205,-0.541 0.246,-0.22 0.482,-0.423 0.514,-0.169 0.014,0.013 0.033,0.004 0.062,-0.033 0.085,-0.088 0.085,-0.404 0.079,-0.437 0.011,0.002 0.03,-0.065 0.044,-0.097 -0.025,-0.176 -0.127,-0.049 -0.159,-0.054 0.143,-0.082 0.24,-0.526 0.158,-0.93 -0.197,-0.185 0.064,-0.583 -0.155,-0.723 0.044,-0.383 -0.254,-0.791 -0.31,-1.15 -0.101,-0.071 -0.164,-0.048 -0.268,-0.182 0.018,-0.147 -0.115,-0.374 -0.148,-0.504 -0.05,-0.048 -0.07,-0.039 -0.121,-0.087 m 0.194,-0.799 c -0.1,-0.065 -0.324,-0.342 -0.401,-0.285 0.209,0.196 0.26,0.418 0.415,0.646 0.116,0.095 0.079,-0.162 -0.014,-0.361 m -17.229,4.905 c 0.232,0.195 0.283,0.419 0.425,0.653 0.118,0.095 0.071,-0.157 -0.005,-0.366 -0.092,-0.071 -0.354,-0.34 -0.42,-0.287 m 3.355,-16.952 c 0.231,-0.466 -1.504,0.578 -2.217,0.845 -0.328,0.164 -1.203,0.416 -1.052,0.531 -1.788,0.073 -3.287,0.75 -5.318,0.726 -0.677,0.187 -0.789,0.377 -1.649,0.751 0.136,-0.4 -1.649,0.787 -2.135,1.298 -1.223,1.094 -1.573,3.231 -1.11,4.29 0.116,0.59 0.425,1.471 0.079,0.845 0.345,0.828 1.013,1.268 1.24,1.964 -0.614,-0.717 -0.66,-0.711 -1.011,-1.227 0.42,1.339 1.76,2.476 2.71,3.176 -0.008,0.006 0.031,0.045 0.077,0.09 1.667,0.826 3.172,0.953 3.973,0.772 0.284,0.071 0.568,0.128 0.848,0.164 0.773,-0.502 1.36,-0.707 1.861,-0.762 0.191,0.014 0.373,0.047 0.525,0.109 0.541,0.209 0.801,0.427 0.281,0.38 -0.026,0.012 0.002,0.034 0.1,0.073 0.208,0.105 1.133,0.266 1.255,0.253 -10e-4,0.009 0.213,0.047 0.322,0.053 0.551,-0.042 0.112,-0.126 0.118,-0.158 0.339,0.197 1.716,-0.107 2.7,-0.489 0.501,-0.332 1.484,-0.183 1.905,-0.339 0.335,-0.005 0.24,0.177 1.018,-0.025 0.348,-0.165 0.573,-0.344 0.82,-0.534 0.478,-0.377 0.915,-0.775 1.332,-1.09 0.171,-0.238 0.133,-0.284 0.454,-0.632 0.33,-0.197 0.85,-0.747 1.142,-0.992 0.118,-0.151 0.101,-0.167 0.216,-0.321 0.584,-0.365 1.347,-1.44 1.765,-2.417 0.085,-0.35 0.188,-0.692 0.253,-1.041 0.105,-0.366 0.251,-0.684 0.319,-1.009 0.152,-1.731 -0.458,-3.341 -1.345,-4.145 -0.021,-0.019 -0.041,-0.035 -0.061,-0.052 -0.355,-0.475 -0.806,-0.884 -1.353,-1.202 0.111,0.042 0.222,0.086 0.339,0.123 -0.541,-0.437 -1.238,-0.644 -1.921,-0.761 -0.072,-0.055 -0.139,-0.107 -0.195,-0.15 0.403,0.056 0.7,0.09 0.719,-0.013 -0.008,-0.136 -1.104,-0.397 -1.621,-0.31 -2.152,0.072 -4.048,0.482 -5.378,1.709 0.028,0.014 0.045,0.039 0.052,0.068 -0.311,0.169 -0.631,0.338 -0.981,0.528 0.095,-0.095 0.148,-0.173 0.254,-0.198 -0.126,-0.111 -2.871,1.169 -1.607,0.355 0.699,-0.494 1.857,-0.768 2.277,-1.236 m -8.833,1.826 c -1.616,0.146 -3.3,1.371 -4.033,2.405 0.163,-0.139 0.325,-0.275 0.502,-0.382 0.744,-0.71 1.623,-1.094 2.554,-1.503 0.715,-0.432 1.406,-0.371 0.977,-0.52 m -4.939,4.083 c 0.127,-0.257 0.349,-0.661 0.503,-1.024 -0.179,0.252 -0.363,0.513 -0.491,0.806 z m 24.737,-0.16 c -0.109,0.226 -0.152,0.467 -0.243,0.884 0.049,-0.066 0.109,-0.131 0.148,-0.202 0.067,-0.149 0.02,-0.356 0.095,-0.682 m 0.153,-1.164 c 0.011,-0.196 0.005,-0.393 0.006,-0.592 l -0.223,-0.202 0.017,0.661 c 0.038,0.848 0.181,-0.881 0.2,0.133 m -1.948,-3.898 0.247,0.224 c -0.143,-0.285 -0.452,-0.554 -0.689,-0.67 -0.17,0.031 0.325,0.334 0.442,0.446 m 0.942,0.079 c -0.436,-0.522 -1.468,-1.377 -1.801,-1.227 0.572,0.234 1.531,1.252 1.692,1.205 0.046,0.044 0.053,-0.021 0.109,0.022 m 0,0 c 0.051,0.059 0.095,0.117 0.127,0.167 -0.061,-0.1 -0.1,-0.146 -0.127,-0.167 m -2.139,-1.889 c -1.763,-0.48 -3.906,-0.896 -5.52,-0.1 1.926,-0.471 1.017,0.103 2.771,-0.043 -0.225,-0.122 0.662,-0.281 1.28,-0.13 0.571,0.167 1.268,0.376 1.743,0.629 0.32,0.181 0.397,-0.033 -0.274,-0.356 m -14.56,2.824 0.09,-0.079 c -0.381,0.012 -2.138,0.173 -1.247,0.297 0.49,-0.009 1.299,-0.102 1.157,-0.218 m -5.606,10.49 c -0.856,0.027 -1.343,0.469 -1.483,0.883 -0.043,0.009 -0.087,0.02 -0.13,0.032 -0.12,0.109 -0.225,0.245 -0.317,0.4 -0.279,0.129 -0.548,0.273 -0.533,0.031 -0.01,-0.014 -0.031,-0.01 -0.068,0.017 -0.107,0.067 -0.13,0.356 -0.144,0.385 -0.011,-0.004 -0.041,0.053 -0.062,0.079 -0.007,0.161 0.116,0.065 0.147,0.076 -0.154,0.049 -0.309,0.428 -0.291,0.793 0.161,0.191 -0.174,0.495 0.023,0.651 -0.12,0.324 0.087,0.725 0.059,1.044 0.073,0.079 0.143,0.071 0.211,0.204 -0.054,0.124 0.032,0.342 0.01,0.463 0.037,0.052 0.059,0.047 0.096,0.097 -0.083,0.225 -0.014,0.607 0.128,0.9080003 0.075,0.088 0.136,0.179 0.225,0.259 0.031,0.117 0.049,0.228 0.065,0.338 0.274,0.333 0.642,0.562 0.983,0.658 0.001,0 0.002,0.001 0.003,0.002 v -0.002 c 0.097,0.027 0.192,0.045 0.28,0.05 0.015,-10e-4 0.027,-0.005 0.041,-0.008 0.153,0.095 0.317,0.169 0.492,0.221 -0.043,0.015 -0.087,0.032 -0.134,0.047 0.204,0.098 0.421,0.099 0.633,0.086 0.023,0.039 0.046,0.075 0.067,0.106 -0.13,0.007 -0.225,0.029 -0.237,0.157 -0.001,0.136 0.382,0.124 0.547,0.06 0.716,-0.41 1.444,-0.538 1.429,-1.303 -0.026,-0.006 -0.053,-0.017 -0.08,-0.032 0.055,-0.105 0.101,-0.216 0.128,-0.346 0.027,0.059 0.063,0.1 0.026,0.129 0.296,0.081 0.298,-1.0150003 0.511,-0.446 0.137,0.361 -0.301,0.683 -0.232,0.951 0.194,0.298 0.53,-0.486 0.553,-0.812 0.02,-0.149 0.087,-0.5200003 -0.078,-0.4850003 0.426,-0.752 -0.512,-1.184 -0.342,-1.807 -0.104,-0.19 -0.311,-0.171 -0.367,-0.435 0.284,0.007 -0.083,-0.545 -0.082,-0.758 -0.177,-0.421 -0.449,-0.903 -0.729,-1.133 -0.096,-0.154 -0.214,-0.446 -0.02,-0.315 -0.186,-0.221 -0.568,-0.163 -0.584,-0.51 0.283,0.173 0.317,0.14 0.5,0.254 -0.128,-0.503 -0.764,-0.773 -1.21,-0.945 0.004,-0.01 -0.013,-0.027 -0.034,-0.044 m 2.327,2.462 -0.026,0.207 c 0.126,0.264 0.084,0.597 0.199,0.858 0.212,0.166 0.157,0.394 0.33,0.23 0.002,-0.436 -0.281,-1.01 -0.503,-1.295 m -0.15,-0.171 -0.042,-0.277 -0.082,-0.021 c -0.003,0.092 0.022,0.225 0.124,0.298 m -4.506,4.3470003 c 0.003,-0.09 -0.019,-0.166 -0.126,-0.266 l -0.034,0.099 c -0.003,0.06 0.109,0.073 0.16,0.167 m 0.186,0.33 0.106,0.166 0.216,-0.072 -0.13,-0.171 c -0.215,-0.19 0.033,0.328 -0.192,0.077 m 1.627,0.623 c 0.084,-0.109 -0.111,-0.096 -0.156,-0.121 l -0.119,0.003 c 0.068,0.074 0.175,0.149 0.275,0.118 m -0.686,0.358 c 0.238,0.08 0.655,0.255 0.794,0.035 -0.195,-0.039 -0.62,-0.223 -0.748,-0.073 -0.018,-10e-4 -0.029,0.024 -0.046,0.038 m 0,0 c -0.031,-0.011 -0.06,-0.02 -0.085,-0.025 0.045,0.044 0.069,0.04 0.085,0.025 m 1.869,0.116 c 0.102,0.132 -0.195,0.262 -0.423,0.276 -0.205,-0.056 -0.458,-0.075 -0.646,-0.121 -0.133,-0.004 -0.175,0.159 0.095,0.227 0.357,-0.03 0.686,-0.042 1.055,-0.008 0.687,-0.164 0.826,-0.269 1.036,-0.602 -0.631,0.429 -0.404,-0.074 -1.117,0.228 m 2,-3.9400003 c -0.002,0.155 0.093,0.408 0.208,0.349 l 0.08,0.023 c -0.022,-0.138 -0.137,-0.683 -0.288,-0.372 m 22.785,-4.762 0.005,-0.113 c -0.014,-0.065 -0.126,-0.057 -0.203,-0.146 0.024,0.095 0.065,0.172 0.198,0.259 m -0.502,-0.554 -0.144,-0.156 -0.199,0.116 c 0.066,0.044 0.117,0.103 0.175,0.156 0.259,0.163 -0.116,-0.342 0.168,-0.116 m -1.852,-0.38 c -0.076,0.118 0.14,0.081 0.192,0.1 l 0.131,-0.018 c -0.09,-0.063 -0.218,-0.125 -0.323,-0.082 m -0.162,-0.398 c 0.195,0.067 0.688,0.147 0.779,0 0.018,0 0.024,-0.026 0.037,-0.043 -0.241,-0.058 -0.705,-0.15 -0.816,0.043 m 0.816,-0.043 c 0.033,0.009 0.063,0.016 0.085,0.021 -0.049,-0.042 -0.07,-0.037 -0.085,-0.021 m -1.907,-0.116 0.093,-0.032 0.044,-0.02 0.011,-0.005 0.002,-0.001 0.002,-0.001 c 0.274,-0.062 0.377,-0.086 0.408,-0.093 -0.007,0.001 -0.016,0.003 -0.024,0.005 l 0.005,0.002 0.022,0.005 0.175,0.03 c 0.117,0.013 0.233,0.018 0.328,0.036 0.136,-0.007 0.164,-0.172 -0.109,-0.219 -0.09,0.02 -0.178,0.031 -0.267,0.034 l -0.132,-0.002 H 22.047 22.043 22.041 22.04 c 0.098,-0.022 -0.852,0.194 -0.45,0.103 l -0.001,0.001 -0.015,0.01 -0.031,0.023 -0.063,0.042 c -0.173,0.108 -0.342,0.223 -0.503,0.352 -0.31,0.258 -0.577,0.58 -0.575,0.914 0.37,-0.634 0.474,-0.15 0.876,-0.67 -0.164,-0.027 -0.007,-0.371 0.219,-0.514 m 0.503,-0.139 c -0.003,0.001 -0.002,0 0,0 m 0.032,-0.008 v 0 c -0.013,0.004 -0.027,0.007 -0.032,0.008 0.004,-0.001 0.014,-0.003 0.032,-0.008 m 0,0 h 0.001 z m -1.736,5.419 c -0.016,-0.172 -0.144,-0.442 -0.251,-0.369 l -0.082,-0.017 c 0.04,0.146 0.221,0.741 0.333,0.386 M 4.68,-5.2169347 c 0.299,0.428 0.792,0.891 1.216,1.026 0.177,0.131 0.501,0.35 0.208,0.307 0.352,0.138 0.691,-0.091 0.959,0.176 -0.403,0.011 -0.424,0.05 -0.695,0.032 0.511,0.429 1.386,0.224 1.833,0.047 0.003,0.011 0.028,0.012 0.059,0.013 0.613,-0.564 0.753,-1.156 0.679,-1.591 0.04,-0.032 0.078,-0.063 0.117,-0.097 0.034,-0.173 0.059,-0.355 0.079,-0.545 0.204,-0.253 0.406,-0.483 0.482,-0.247 0.017,0.011 0.033,0 0.057,-0.038 0.068,-0.093 0.012,-0.383 0.013,-0.414 0.011,10e-4 0.022,-0.064 0.034,-0.095 -0.043,-0.16 -0.131,-0.032 -0.164,-0.033 0.127,-0.091 0.187,-0.511 0.084,-0.885 -0.196,-0.169 0.057,-0.551 -0.164,-0.68 0.049,-0.365 -0.23,-0.76 -0.282,-1.108 -0.094,-0.071 -0.157,-0.052 -0.251,-0.185 0.039,-0.146 -0.118,-0.36 -0.129,-0.4940003 -0.046,-0.049 -0.066,-0.041 -0.112,-0.089 0.024,-0.256 -0.159,-0.655 -0.409,-0.943 -0.098,-0.082 -0.213,-0.149 -0.33,-0.213 -0.078,-0.112 -0.133,-0.232 -0.205,-0.335 -0.436,-0.262 -0.924,-0.306 -1.303,-0.244 h -0.01 l 0.001,0.002 c -0.109,0.019 -0.21,0.045 -0.297,0.078 -0.014,0.01 -0.025,0.02 -0.039,0.03 -0.154,-0.008 -0.314,-0.005 -0.482,0.015 -0.037,0.016 -0.072,0.033 -0.108,0.05 0.026,-0.044 0.057,-0.089 0.108,-0.136 -0.269,0.056 -0.448,0.22 -0.606,0.388 -0.044,-0.012 -0.085,-0.022 -0.122,-0.028 0.097,-0.102 0.156,-0.192 0.084,-0.275 -0.105,-0.11 -0.413,0.167 -0.483,0.347 -0.255,0.715 -0.95,1.126 -0.659,1.8360003 0.027,-0.002 0.056,0.001 0.086,0.008 -0.023,0.119 -0.037,0.243 -0.033,0.379 -0.04,-0.048 -0.083,-0.079 -0.057,-0.117 -0.285,-0.008 -0.063,1.107 -0.39,0.573 -0.216,-0.33 0.141,-0.751 -0.024,-0.984 -0.273,-0.217 -0.354,0.584 -0.319,0.91 0.012,0.15 0.02,0.533 0.175,0.47 -0.279,0.83 0.71,1.161 0.661,1.86 0.15,0.189 0.34,0.149 0.461,0.422 -0.288,0.03 0.2,0.582 0.277,0.807 m -1.016,-1.051 c 0.079,0.472 0.505,1.068 0.833,1.345 l -0.038,-0.232 c -0.211,-0.269 -0.242,-0.64 -0.418,-0.905 -0.238,-0.156 -0.242,-0.404 -0.377,-0.208 m 1.286,1.807 c -0.043,-0.097 -0.104,-0.243 -0.241,-0.301 l 0.145,0.295 z m 3.082,-7.1970003 c 0.035,0.096 0.088,0.169 0.235,0.25 l -0.007,-0.115 c -0.022,-0.064 -0.138,-0.05 -0.228,-0.135 m -0.359,-0.276 -0.183,-0.14 -0.175,0.144 0.207,0.134 c 0.302,0.131 -0.188,-0.33 0.151,-0.138 m -1.911,0.106 c -0.026,0.135 0.157,0.029 0.213,0.029 l 0.112,-0.061 c -0.104,-0.03 -0.244,-0.045 -0.325,0.032 m 0.449,-0.631 c 0.033,-0.005 0.065,-0.011 0.095,-0.018 -0.077,-0.031 -0.089,-0.009 -0.095,0.018 m -0.018,0.043 c 0.014,-0.005 0.014,-0.026 0.018,-0.043 -0.264,0.037 -0.63,0.034 -0.862,0.384 0.435,-0.15 0.756,-0.127 0.844,-0.341 m -1.624,0.543 c 0.23,-0.085 0.415,-0.288 0.605,-0.37 0.109,-0.086 0.024,-0.233 -0.238,-0.101 -0.455,0.526 -1.305,0.999 -1.285,1.684 0.308,-0.627 0.461,-0.166 0.791,-0.696 -0.171,-0.02 -0.049,-0.346 0.127,-0.517 m -1.08,4.8400003 -0.084,-0.012 c 0.046,0.14 0.261,0.713 0.353,0.36 -0.03,-0.167 -0.159,-0.427 -0.269,-0.348 m 14.341,1.316 c -0.026,-0.092 -0.093,-0.22 -0.213,-0.27 l 0.125,0.268 z m 1.967,-6.8470003 -0.187,-0.095 -0.137,0.171 0.208,0.088 c 0.294,0.061 -0.222,-0.276 0.116,-0.164 m -1.724,0.354 c -0.017,0.137 0.144,0.008 0.195,0.018 l 0.1,-0.057 c -0.098,-0.034 -0.227,-0.055 -0.295,0.039 m -0.28,-0.295 c 0.18,-0.032 0.61,-0.133 0.635,-0.3 0.016,-0.008 0.009,-0.039 0.017,-0.06 -0.226,0.039 -0.634,0.126 -0.652,0.36 m 0.652,-0.36 c 0.03,-0.004 0.056,-0.009 0.078,-0.012 -0.052,-0.016 -0.071,-0.005 -0.078,0.012 m -1.893,0.316 v 0 c 0.104,-0.12 -0.917,1.049 -0.485,0.554 l -0.001,10e-4 -0.038,0.11 -0.062,0.223 c -0.02,0.144 -0.023,0.29 0.035,0.42 0.04,-0.297 0.147,-0.358 0.248,-0.412 0.051,-0.027 0.101,-0.052 0.143,-0.105 0.02,-0.025 0.04,-0.059 0.055,-0.102 l 0.012,-0.035 0.002,-0.002 v -0.001 -10e-4 c -0.226,0.257 0.307,-0.35 0.252,-0.288 l 0.005,-10e-4 0.01,-0.003 0.019,-0.006 0.088,-0.032 c -0.121,-0.103 0.098,-0.301 0.279,-0.374 0.196,0.008 0.399,-0.095 0.573,-0.114 0.107,-0.047 0.067,-0.209 -0.169,-0.172 -0.261,0.176 -0.537,0.263 -0.853,0.316 l -0.057,0.012 -0.029,0.006 -0.015,0.004 -0.006,0.001 -0.004,10e-4 z m 0.045,4.5280003 c -0.005,-0.022 -0.007,-0.043 -0.012,-0.065 0.108,0.113 0.203,0.232 0.252,0.373 -0.069,-0.108 -0.156,-0.208 -0.24,-0.308 m -5.602,1.808 c 0.093,0.233 0.307,0.234 0.353,0.547 -0.286,-0.041 0.067,0.637 0.067,0.877 0.176,0.5 0.446,1.071 0.731,1.363 0.097,0.182 0.205,0.514 0.008,0.343 0.183,0.262 0.588,0.271 0.576,0.635 -0.28,-0.229 -0.318,-0.202 -0.501,-0.35 0.102,0.549 0.718,0.923 1.145,1.193 -0.007,0.008 0.009,0.028 0.027,0.05 0.875,0.168 1.544,-0.133 1.813,-0.503 0.053,0 0.105,-0.002 0.158,-0.006 0.207,-0.075 0.39,-0.177 0.553,-0.298 0.337,-0.047 0.657,-0.112 0.527,0.128 0.004,0.02 0.026,0.022 0.076,10e-4 0.152,-0.036 0.31,-0.366 0.325,-0.399 0.009,0.005 0.061,-0.056 0.091,-0.083 0.069,-0.189 -0.091,-0.097 -0.119,-0.116 0.182,-0.02 0.461,-0.462 0.501,-0.908 -0.129,-0.244 0.242,-0.587 0.049,-0.786 0.147,-0.384 -0.063,-0.866 -0.037,-1.241 -0.082,-0.094 -0.148,-0.086 -0.219,-0.245 0.039,-0.11 0.002,-0.289 -0.017,-0.428 0.108,0.125 0.219,0.236 0.318,0.315 l -0.028,-0.215 c -0.191,-0.222 -0.227,-0.542 -0.384,-0.77 -0.016,-0.11 -0.042,-0.223 -0.076,-0.337 0.103,0.076 0.215,0.087 0.312,0.175 0.011,0.049 0.023,0.098 0.036,0.15 -0.134,0.112 0.267,0.519 0.324,0.709 0.284,0.38 0.706,0.8 1.071,0.943 0.154,0.12 0.388,0.371 0.144,0.302 0.281,0.159 0.627,-0.035 0.801,0.284 -0.349,-0.065 -0.379,-0.01 -0.606,-0.066 0.356,0.451 1.133,0.436 1.599,0.387 0,0.011 0.024,0.019 0.05,0.026 0.707,-0.404 0.964,-0.939 0.968,-1.372 0.175,-0.095 0.352,-0.209 0.531,-0.347 0.012,-0.295 0.006,-0.6 -0.016,-0.907 0.16,-0.264 0.327,-0.503 0.439,-0.299 0.018,0.007 0.033,-0.006 0.05,-0.044 0.043,-0.093 -0.049,-0.353 -0.053,-0.381 0.011,-0.001 0.014,-0.062 0.021,-0.092 -0.065,-0.141 -0.135,-0.012 -0.167,-0.008 0.115,-0.101 0.106,-0.498 -0.04,-0.831 -0.221,-0.127 -0.021,-0.521 -0.253,-0.609 -0.007,-0.349 -0.337,-0.6720003 -0.437,-0.9890003 -0.099,-0.052 -0.155,-0.024 -0.275,-0.127 10e-4,-0.138 -0.162,-0.321 -0.198,-0.443 -0.056,-0.035 -0.074,-0.022 -0.13,-0.056 -0.007,-0.207 -0.182,-0.466 -0.399,-0.677 -0.043,-0.155 -0.084,-0.311 -0.157,-0.443 -0.24,-0.173 -0.212,-0.428 -0.364,-0.236 0,0.006 0.002,0.013 0.003,0.019 -0.005,-0.003 -0.01,-0.003 -0.014,-0.006 0.005,0.01 0.012,0.017 0.017,0.027 0.02,0.132 0.062,0.272 0.12,0.414 -0.036,-0.011 -0.071,-0.022 -0.104,-0.034 -0.091,-0.091 -0.161,-0.195 -0.245,-0.277 -0.445,-0.131 -0.88,-0.136 -1.221,-0.031 -0.014,0.001 -0.028,0.002 -0.042,0.002 0.003,0.003 0.006,0.006 0.01,0.009 -0.093,0.032 -0.18,0.069 -0.255,0.116 -0.009,0.005 -0.015,0.013 -0.024,0.019 -0.182,10e-4 -0.37,0.017 -0.567,0.052 l 0.092,-0.091 c -0.231,0.011 -0.426,0.075 -0.619,0.157 -0.033,-0.028 -0.065,-0.054 -0.092,-0.079 0.114,-0.037 0.186,-0.073 0.157,-0.212 -0.051,-0.126 -0.377,-0.009 -0.505,0.096 l -0.106,0.077 -0.026,0.017 -0.013,0.007 -0.002,10e-4 -0.001,10e-4 c -0.091,0.105 0.204,-0.232 -0.204,0.234 v 10e-4 0.003 l -0.001,0.008 -0.003,0.062 -0.044,0.23 c -0.03,0.148 -0.092,0.288 -0.128,0.428 -0.089,0.28 -0.124,0.567 0.086,0.836 0.027,-0.007 0.056,-0.009 0.087,-0.008 0.002,0.111 0.009,0.225 0.035,0.3480003 -0.047,-0.038 -0.095,-0.061 -0.074,-0.099 -0.283,0.039 0.099,1.0050168 -0.302,0.5730168 -0.249,-0.262 0.023,-0.6880168 -0.181,-0.8650168 -0.197,-0.089 -0.239,0.167 -0.225,0.4390168 -0.215,-0.1480168 -0.563,-0.4190168 -0.768,-0.2770168 0.195,0.122 0.573,0.4310168 0.736,0.3160168 0.011,0.005 0.022,-0.003 0.034,-0.013 0.009,0.144 0.031,0.288 0.055,0.386 0.038,0.129 0.086,0.471 0.231,0.394 -0.015,0.063 -0.02,0.122 -0.02,0.178 -0.16,-0.144 -0.326,-0.266 -0.49,-0.361 -0.002,-0.002 -0.004,-0.003 -0.005,-0.005 v 0.002 c -0.097,-0.056 -0.195,-0.104 -0.291,-0.14 -0.015,-0.003 -0.03,-0.004 -0.045,-0.007 -0.151,-0.157 -0.309,-0.294 -0.472,-0.412 l 0.152,0.008 c -0.172,-0.1790168 -0.416,-0.2790168 -0.661,-0.3410168 -0.012,-0.043 -0.024,-0.085 -0.037,-0.123 0.165,0.033 0.293,0.05 0.312,-0.053 -0.019,-0.102 -0.238,-0.35 -0.739,-0.225 -0.68,0.359 -1.626,0.281 -1.825,1.1350168 0.024,0.011 0.048,0.029 0.07,0.049 -0.091,0.107 -0.172,0.225 -0.237,0.37 -0.01,-0.072 -0.034,-0.125 0.014,-0.153 -0.295,-0.147 -0.56,1.131 -0.635,0.442 -0.051,-0.442 0.49,-0.749 0.514,-1.046 -0.1,-0.3650168 -0.706,0.449 -0.8,0.84 -0.061,0.172 -0.203,0.601 -0.029,0.581 -0.565,0.842 0.345,1.459 0.139,2.165 m -0.312,0.116 c -0.024,0.507 0.25,1.192 0.473,1.538 l 0.029,-0.228 c -0.122,-0.317 -0.072,-0.692 -0.18,-1.007 -0.206,-0.215 -0.141,-0.473 -0.322,-0.303 m 0.62,1.749 0.039,0.312 0.084,0.035 c 0.005,-0.102 -0.014,-0.255 -0.123,-0.347 m 3.724,-5.425 c -0.119,0.076 0.096,0.138 0.136,0.179 l 0.126,0.04 c -0.056,-0.099 -0.147,-0.212 -0.262,-0.219 m -0.87,-1.2180168 v 0 c 0.27,0.011 -0.367,-0.014 -0.303,-0.011 h -10e-4 l -0.009,10e-4 -0.018,0.002 -0.071,0.007 -0.143,0.012 c -0.378,0.021 -0.789,0.136 -1.024,0.408 0.722,-0.314 0.499,0.159 1.132,-0.042 -0.055,-0.059 -0.01,-0.132 0.083,-0.2 0.574,-0.08 0.407,-0.008 0.635,0.018 0.225,0.149 0.49,0.24 0.655,0.367 0.133,0.055 0.223,-0.088 -0.022,-0.254 -0.178,-0.048 -0.371,-0.105 -0.574,-0.173 l -0.296,-0.117 -0.037,-0.015 -0.005,-0.002 z m -3.292,4.4840168 c 0.016,-0.182 -0.062,-0.487 -0.18,-0.432 l -0.079,-0.035 c 0.01,0.164 0.09,0.814 0.259,0.467"
         style="fill:#ffffff;fill-opacity:1;fill-rule:nonzero;stroke:none"
         id="path417"
         inkscape:connector-curvature="0" />
    </g>
  </g>
</svg>
