<?xml version="1.0" encoding="UTF-8" standalone="no"?>
<svg
   xmlns:dc="http://purl.org/dc/elements/1.1/"
   xmlns:cc="http://creativecommons.org/ns#"
   xmlns:rdf="http://www.w3.org/1999/02/22-rdf-syntax-ns#"
   xmlns:svg="http://www.w3.org/2000/svg"
   xmlns="http://www.w3.org/2000/svg"
   xmlns:sodipodi="http://sodipodi.sourceforge.net/DTD/sodipodi-0.dtd"
   xmlns:inkscape="http://www.inkscape.org/namespaces/inkscape"
   width="210mm"
   height="297mm"
   viewBox="0 0 210 297"
   version="1.1"
   id="svg756"
   inkscape:version="1.0.2 (e86c870879, 2021-01-15, custom)"
   sodipodi:docname="nameandpaw.svg">
  <defs
     id="defs750">
    <rect
       x="48.842058"
       y="43.089646"
       width="7.5935567"
       height="31.288916"
       id="rect1574" />
  </defs>
  <sodipodi:namedview
     id="base"
     pagecolor="#ffffff"
     bordercolor="#666666"
     borderopacity="1.0"
     inkscape:pageopacity="0.0"
     inkscape:pageshadow="2"
     inkscape:zoom="3.1785634"
     inkscape:cx="157.26538"
     inkscape:cy="1054.9647"
     inkscape:document-units="mm"
     inkscape:current-layer="layer1"
     showgrid="false"
     inkscape:window-width="1920"
     inkscape:window-height="1055"
     inkscape:window-x="1920"
     inkscape:window-y="0"
     inkscape:window-maximized="0"
     inkscape:document-rotation="0"
     showguides="true"
     inkscape:guide-bbox="true">
    <sodipodi:guide
       position="18.196844,287.11377"
       orientation="0,-1"
       id="guide1578" />
  </sodipodi:namedview>
  <metadata
     id="metadata753">
    <rdf:RDF>
      <cc:Work
         rdf:about="">
        <dc:format>image/svg+xml</dc:format>
        <dc:type
           rdf:resource="http://purl.org/dc/dcmitype/StillImage" />
        <dc:title />
      </cc:Work>
    </rdf:RDF>
  </metadata>
  <g
     inkscape:label="Layer 1"
     inkscape:groupmode="layer"
     id="layer1">
    <g
       id="text774"
       style="font-style:normal;font-variant:normal;font-weight:500;font-stretch:normal;font-size:12.7px;line-height:1.25;font-family:'3270Medium Nerd Font';-inkscape-font-specification:'3270Medium Nerd Font, Medium';font-variant-ligatures:normal;font-variant-caps:normal;font-variant-numeric:normal;font-feature-settings:normal;text-align:start;letter-spacing:0px;word-spacing:0px;writing-mode:lr-tb;text-anchor:start;fill:#000000;fill-opacity:1;stroke:none;stroke-width:0.264583" />
    <g
       id="text778"
       style="font-style:normal;font-variant:normal;font-weight:500;font-stretch:normal;font-size:12.7px;line-height:1.25;font-family:'3270Medium Nerd Font';-inkscape-font-specification:'3270Medium Nerd Font, Medium';font-variant-ligatures:normal;font-variant-caps:normal;font-variant-numeric:normal;font-feature-settings:normal;text-align:start;letter-spacing:0px;word-spacing:0px;writing-mode:lr-tb;text-anchor:start;fill:#000000;fill-opacity:1;stroke:none;stroke-width:0.264583" />
    <g
       aria-label="the "
       style="font-style:normal;font-variant:normal;font-weight:500;font-stretch:normal;font-size:12.7px;line-height:1.25;font-family:'3270Medium Nerd Font';-inkscape-font-specification:'3270Medium Nerd Font, Medium';font-variant-ligatures:normal;font-variant-caps:normal;font-variant-numeric:normal;font-feature-settings:normal;text-align:start;letter-spacing:0px;word-spacing:0px;writing-mode:lr-tb;text-anchor:start;fill:#000000;fill-opacity:1;stroke:none;stroke-width:0.264583"
       id="text760"
       transform="translate(-25.309875,261.16995)">
      <path
         d="m 31.114441,25.974465 -0.334864,1.012859 -1.360123,0.05788 q -0.310059,1.02526 -0.570508,1.984375 -0.260449,0.963249 -0.487826,1.971973 l -1.318782,0.115755 q 0.23151,-1.124479 0.520898,-2.195215 0.227377,-0.859896 0.529167,-1.79834 l -1.327051,0.04961 0.338998,-1.025261 z"
         style="font-style:normal;font-variant:normal;font-weight:normal;font-stretch:normal;font-size:8.46667px;font-family:'SF Comic Script Extended';-inkscape-font-specification:'SF Comic Script Extended, Normal';font-variant-ligatures:normal;font-variant-caps:normal;font-variant-numeric:normal;font-feature-settings:normal;text-align:start;writing-mode:lr-tb;text-anchor:start;stroke-width:0.264583"
         id="path1026"
         inkscape:connector-curvature="0" />
      <path
         d="m 36.083646,25.829771 q -0.487825,1.413868 -0.81442,2.633431 -0.310059,1.165821 -0.533301,2.372982 l -1.298112,0.04134 0.37207,-1.694987 -1.546159,-0.02067 q -0.16123,0.450618 -0.281119,0.888834 -0.132292,0.500228 -0.239779,1.045931 l -1.289844,0.04134 q 0.148828,-0.727604 0.330729,-1.405599 0.479558,-1.785937 1.099675,-3.604947 l 1.30638,-0.04134 -0.636654,2.017447 1.525489,0.0083 0.119889,-0.458887 q 0.02067,-0.06615 0.198437,-0.587044 l 0.388607,-1.190625 z"
         style="font-style:normal;font-variant:normal;font-weight:normal;font-stretch:normal;font-size:8.46667px;font-family:'SF Comic Script Extended';-inkscape-font-specification:'SF Comic Script Extended, Normal';font-variant-ligatures:normal;font-variant-caps:normal;font-variant-numeric:normal;font-feature-settings:normal;text-align:start;writing-mode:lr-tb;text-anchor:start;stroke-width:0.264583"
         id="path1028"
         inkscape:connector-curvature="0" />
      <path
         d="m 40.945365,25.825637 -0.326595,0.992188 q -0.570508,0.02894 -1.207161,0.08682 -0.537435,0.04961 -0.979785,0.09922 -0.06201,0.202572 -0.128158,0.429948 -0.07855,0.28112 -0.124023,0.578776 0.454752,-0.06615 0.963248,-0.107487 0.516765,-0.04134 0.967383,-0.06201 l -0.272851,1.016992 q -0.496094,0.0041 -0.963249,0.04961 -0.463021,0.04134 -0.971517,0.119889 -0.119889,0.264583 -0.181901,0.51263 -0.07028,0.248047 -0.08682,0.500228 0.516764,-0.06201 1.099674,-0.119889 0.574642,-0.04961 1.087272,-0.07028 l -0.268717,1.016992 q -0.909505,0.04134 -1.748731,0.111621 -0.830957,0.07855 -1.765267,0.190169 0.227377,-1.079004 0.525033,-2.166276 0.268717,-1.000455 0.570508,-1.938899 l -0.520899,0.02067 0.223243,-0.938444 q 1.504817,-0.07441 2.68304,-0.173633 0.698665,-0.06614 1.426269,-0.148828 z"
         style="font-style:normal;font-variant:normal;font-weight:normal;font-stretch:normal;font-size:8.46667px;font-family:'SF Comic Script Extended';-inkscape-font-specification:'SF Comic Script Extended, Normal';font-variant-ligatures:normal;font-variant-caps:normal;font-variant-numeric:normal;font-feature-settings:normal;text-align:start;writing-mode:lr-tb;text-anchor:start;stroke-width:0.264583"
         id="path1030"
         inkscape:connector-curvature="0" />
    </g>
    <g
       aria-label="Forty"
       style="font-style:normal;font-variant:normal;font-weight:500;font-stretch:normal;font-size:12.7px;line-height:1.25;font-family:'3270Medium Nerd Font';-inkscape-font-specification:'3270Medium Nerd Font, Medium';font-variant-ligatures:normal;font-variant-caps:normal;font-variant-numeric:normal;font-feature-settings:normal;text-align:start;letter-spacing:0px;word-spacing:0px;writing-mode:lr-tb;text-anchor:start;fill:#000000;fill-opacity:1;stroke:none;stroke-width:0.264583"
       id="text906"
       transform="translate(4.3234687,261.16995)">
      <path
         d="m 50.032588,24.757784 -0.601514,1.872754 q -0.837158,0.03721 -1.792138,0.117823 l -1.128614,0.105419 q -0.626318,0.05581 -1.196826,0.130225 -0.136425,0.347266 -0.235644,0.706934 -0.10542,0.446484 -0.241846,1.172021 0.911572,-0.111621 1.810742,-0.198437 0.911572,-0.07441 1.810742,-0.117823 l -0.508496,1.90376 q -0.886767,0.0124 -1.810742,0.09922 -0.89917,0.07441 -1.816943,0.223242 -0.310059,0.905371 -0.58291,1.916162 -0.266651,0.992188 -0.434082,1.891358 l -2.480469,0.210839 q 0.359668,-1.767334 1.116211,-4.557861 0.378271,-1.438672 0.905371,-3.050976 l -1.00459,-0.0124 0.47749,-1.79834 q 2.864942,-0.155029 5.134571,-0.359668 1.513085,-0.124023 2.579687,-0.254248 z"
         style="font-style:normal;font-variant:normal;font-weight:normal;font-stretch:normal;font-size:12.7px;font-family:'SF Comic Script Extended';-inkscape-font-specification:'SF Comic Script Extended, Normal';font-variant-ligatures:normal;font-variant-caps:normal;font-variant-numeric:normal;font-feature-settings:normal;text-align:start;writing-mode:lr-tb;text-anchor:start;stroke-width:0.264583"
         id="path1015"
         inkscape:connector-curvature="0" />
      <path
         d="m 56.829072,28.856759 q -0.378272,1.382861 -1.637109,2.48667 -1.370459,1.196826 -2.988965,1.345654 -1.649512,0.136426 -2.306836,-1.041797 -0.58291,-1.023193 -0.21084,-2.455664 0.403076,-1.469677 1.618506,-2.641699 1.358056,-1.345654 3.063379,-1.494482 2.201416,-0.192237 2.833935,1.314648 l -0.644922,0.434082 q 0.601514,0.812354 0.272852,2.052588 z m -1.351856,-1.506885 q -0.328662,-0.768945 -1.544091,-0.663525 -0.923975,0.08682 -1.624707,0.917773 -0.570508,0.657324 -0.79375,1.506885 -0.229444,0.843359 -0.03101,1.413867 0.248047,0.731738 1.16582,0.651123 0.837158,-0.07441 1.525488,-0.775146 0.601514,-0.63252 0.806153,-1.364258 0.198437,-0.750342 -0.179834,-1.240234 z"
         style="font-style:normal;font-variant:normal;font-weight:normal;font-stretch:normal;font-size:12.7px;font-family:'SF Comic Script Extended';-inkscape-font-specification:'SF Comic Script Extended, Normal';font-variant-ligatures:normal;font-variant-caps:normal;font-variant-numeric:normal;font-feature-settings:normal;text-align:start;writing-mode:lr-tb;text-anchor:start;stroke-width:0.264583"
         id="path1017"
         inkscape:connector-curvature="0" />
      <path
         d="m 65.293672,27.015011 q -0.254248,0.985986 -1.277442,1.860351 -0.973584,0.824756 -2.22622,1.258838 1.401464,0.570508 2.052587,2.139405 l -2.052587,0.539502 q -0.378272,-1.568897 -1.934766,-2.22002 -0.465088,1.364258 -0.68833,2.189014 l -1.928564,0.167431 q 0.607714,-2.095996 2.139404,-6.232177 -0.285254,0.03101 -0.644922,0.117822 l 0.117822,-1.389063 q 0.551904,-0.124023 1.11001,-0.167431 2.412256,-0.21084 3.609082,-0.03101 2.114599,0.328662 1.723926,1.767334 z m -2.127002,0.5271 q 0.21084,-0.781348 -0.930176,-0.911573 -0.235645,-0.03101 -1.928564,0.0248 l 0.74414,0.31626 -0.750342,2.244824 q 0.89917,-0.08682 1.723926,-0.496094 0.961182,-0.489892 1.141016,-1.178222 z"
         style="font-style:normal;font-variant:normal;font-weight:normal;font-stretch:normal;font-size:12.7px;font-family:'SF Comic Script Extended';-inkscape-font-specification:'SF Comic Script Extended, Normal';font-variant-ligatures:normal;font-variant-caps:normal;font-variant-numeric:normal;font-feature-settings:normal;text-align:start;writing-mode:lr-tb;text-anchor:start;stroke-width:0.264583"
         id="path1019"
         inkscape:connector-curvature="0" />
      <path
         d="m 72.790888,25.111251 -0.502295,1.519287 -2.040186,0.08682 q -0.465088,1.53789 -0.855761,2.976562 -0.390674,1.444873 -0.731739,2.957959 l -1.978174,0.173633 q 0.347266,-1.686719 0.781348,-3.292822 0.341065,-1.289844 0.79375,-2.69751 l -1.990576,0.07441 0.508496,-1.537891 z"
         style="font-style:normal;font-variant:normal;font-weight:normal;font-stretch:normal;font-size:12.7px;font-family:'SF Comic Script Extended';-inkscape-font-specification:'SF Comic Script Extended, Normal';font-variant-ligatures:normal;font-variant-caps:normal;font-variant-numeric:normal;font-feature-settings:normal;text-align:start;writing-mode:lr-tb;text-anchor:start;stroke-width:0.264583"
         id="path1021"
         inkscape:connector-curvature="0" />
      <path
         d="m 79.872626,25.222872 q -1.258838,1.463477 -3.057178,3.906739 -0.235645,0.316259 -0.644922,0.973583 -0.148828,0.297657 -0.310059,0.892969 -0.254248,0.94878 -0.421679,1.754932 l -1.947168,0.06201 q 0.198437,-0.917774 0.403076,-1.69292 0.155029,-0.626319 0.328662,-1.134815 -0.248047,-0.601513 -0.551904,-2.232422 -0.254248,-1.382861 -0.297656,-2.201416 l 2.009179,-0.334863 q 0.05581,0.725537 0.10542,1.457275 0.09922,0.855762 0.341065,1.364258 1.215429,-2.021582 2.17041,-2.926953 z"
         style="font-style:normal;font-variant:normal;font-weight:normal;font-stretch:normal;font-size:12.7px;font-family:'SF Comic Script Extended';-inkscape-font-specification:'SF Comic Script Extended, Normal';font-variant-ligatures:normal;font-variant-caps:normal;font-variant-numeric:normal;font-feature-settings:normal;text-align:start;writing-mode:lr-tb;text-anchor:start;stroke-width:0.264583"
         id="path1023"
         inkscape:connector-curvature="0" />
    </g>
    <g
       aria-label="Five"
       style="font-style:normal;font-variant:normal;font-weight:500;font-stretch:normal;font-size:12.7px;line-height:1.25;font-family:'3270Medium Nerd Font';-inkscape-font-specification:'3270Medium Nerd Font, Medium';font-variant-ligatures:normal;font-variant-caps:normal;font-variant-numeric:normal;font-feature-settings:normal;text-align:start;letter-spacing:0px;word-spacing:0px;writing-mode:lr-tb;text-anchor:start;fill:#000000;fill-opacity:1;stroke:none;stroke-width:0.264583"
       id="text910"
       transform="translate(4.3234687,261.16995)">
      <path
         d="m 88.878573,24.135119 -0.601513,1.872754 q -0.837158,0.03721 -1.792139,0.117822 l -1.128613,0.10542 q -0.626318,0.05581 -1.196826,0.130225 -0.136426,0.347265 -0.235645,0.706933 -0.10542,0.446485 -0.241846,1.172022 0.911573,-0.111621 1.810743,-0.198438 0.911572,-0.07441 1.810742,-0.117822 l -0.508496,1.90376 q -0.886768,0.0124 -1.810742,0.09922 -0.89917,0.07442 -1.816944,0.223243 -0.310058,0.905371 -0.58291,1.916162 -0.26665,0.992187 -0.434082,1.891357 l -2.480469,0.21084 q 0.359668,-1.767334 1.116211,-4.557861 0.378272,-1.438672 0.905371,-3.050977 l -1.004589,-0.0124 0.47749,-1.79834 q 2.864941,-0.155029 5.13457,-0.359668 1.513086,-0.124023 2.579687,-0.254248 z"
         style="font-style:normal;font-variant:normal;font-weight:normal;font-stretch:normal;font-size:12.7px;font-family:'SF Comic Script Extended';-inkscape-font-specification:'SF Comic Script Extended, Normal';font-variant-ligatures:normal;font-variant-caps:normal;font-variant-numeric:normal;font-feature-settings:normal;text-align:start;writing-mode:lr-tb;text-anchor:start;stroke-width:0.264583"
         id="path1006"
         inkscape:connector-curvature="0" />
      <path
         d="m 91.836532,24.656017 q -0.744141,2.145606 -1.227832,3.981153 -0.465088,1.742529 -0.806152,3.534668 l -1.965772,0.167431 q 0.359668,-1.990576 0.84336,-3.788916 0.508496,-1.897558 1.209228,-3.832324 z"
         style="font-style:normal;font-variant:normal;font-weight:normal;font-stretch:normal;font-size:12.7px;font-family:'SF Comic Script Extended';-inkscape-font-specification:'SF Comic Script Extended, Normal';font-variant-ligatures:normal;font-variant-caps:normal;font-variant-numeric:normal;font-feature-settings:normal;text-align:start;writing-mode:lr-tb;text-anchor:start;stroke-width:0.264583"
         id="path1008"
         inkscape:connector-curvature="0" />
      <path
         d="m 99.339949,24.463781 q -0.837158,1.16582 -2.058789,3.274219 -1.513086,2.59209 -2.27583,4.260205 -0.843359,-0.04961 -1.754931,0.03101 -0.403077,0.03721 -0.73794,0.08682 -0.05581,-1.302246 0.03101,-3.373437 0.10542,-2.319239 0.285254,-3.981153 l 1.872754,-0.09302 q -0.372071,3.131592 -0.235645,5.004345 1.283643,-2.765722 2.852539,-5.109765 z"
         style="font-style:normal;font-variant:normal;font-weight:normal;font-stretch:normal;font-size:12.7px;font-family:'SF Comic Script Extended';-inkscape-font-specification:'SF Comic Script Extended, Normal';font-variant-ligatures:normal;font-variant-caps:normal;font-variant-numeric:normal;font-feature-settings:normal;text-align:start;writing-mode:lr-tb;text-anchor:start;stroke-width:0.264583"
         id="path1010"
         inkscape:connector-curvature="0" />
      <path
         d="m 106.33487,24.265344 -0.48989,1.488281 q -0.85576,0.04341 -1.81074,0.130224 -0.80616,0.07441 -1.46968,0.148829 -0.093,0.303857 -0.19224,0.644921 -0.11782,0.42168 -0.18603,0.868164 0.68213,-0.09922 1.44487,-0.16123 0.77515,-0.06201 1.45107,-0.09302 l -0.40927,1.525489 q -0.74414,0.0062 -1.44488,0.07441 -0.69453,0.06201 -1.45727,0.179834 -0.17983,0.396875 -0.27285,0.768945 -0.10542,0.37207 -0.13023,0.750342 0.77515,-0.09302 1.64951,-0.179834 0.86197,-0.07441 1.63091,-0.10542 l -0.40307,1.525488 q -1.36426,0.06201 -2.6231,0.167432 -1.24643,0.117822 -2.647899,0.285254 0.341064,-1.618506 0.787548,-3.249414 0.403081,-1.500684 0.855761,-2.90835 l -0.781346,0.03101 0.334866,-1.407666 q 2.25722,-0.111621 4.02456,-0.260449 1.048,-0.09922 2.1394,-0.223242 z"
         style="font-style:normal;font-variant:normal;font-weight:normal;font-stretch:normal;font-size:12.7px;font-family:'SF Comic Script Extended';-inkscape-font-specification:'SF Comic Script Extended, Normal';font-variant-ligatures:normal;font-variant-caps:normal;font-variant-numeric:normal;font-feature-settings:normal;text-align:start;writing-mode:lr-tb;text-anchor:start;stroke-width:0.264583"
         id="path1012"
         inkscape:connector-curvature="0" />
    </g>
    <g
       id="text1566"
       style="font-style:normal;font-weight:normal;font-size:10.5833px;line-height:1.25;font-family:sans-serif;fill:#000000;fill-opacity:1;stroke:none;stroke-width:0.264583" />
    <g
       aria-label="Split"
       id="text1570"
       style="font-style:normal;font-variant:normal;font-weight:normal;font-stretch:normal;font-size:12.7px;line-height:1.25;font-family:'SF Comic Script Extended';-inkscape-font-specification:'SF Comic Script Extended, Normal';font-variant-ligatures:normal;font-variant-caps:normal;font-variant-numeric:normal;font-variant-east-asian:normal;fill:#000000;fill-opacity:1;stroke:none;stroke-width:0.264583"
       transform="translate(0.11001393,-0.16025576)">
      <path
         d="m 22.057217,286.37907 -0.700732,2.04018 -1.885156,0.21084 q -0.21084,0.0186 -0.427881,0.20464 -0.217041,0.17983 -0.26665,0.35967 -0.04341,0.17983 0.272851,0.97358 0.415479,1.0666 0.539502,1.5627 0.272852,1.00459 0.07441,1.70532 -0.09302,0.39067 -0.31626,0.71933 -0.675927,1.017 -2.554882,1.64952 -1.438672,0.49609 -3.026172,0.64492 l 0.254248,-2.18902 q 1.258838,-0.16743 2.052588,-0.43408 0.63872,-0.22324 0.74414,-0.64492 0.09302,-0.35967 -0.192236,-1.24023 -0.285254,-0.65733 -0.551904,-1.33326 -0.334864,-0.87436 -0.179834,-1.43867 0.179834,-0.70073 0.880566,-1.38286 0.706934,-0.68213 1.575098,-1.02939 0.68833,-0.26665 1.779736,-0.35967 0.95498,-0.0868 1.928564,-0.0186 z"
         style="font-style:normal;font-variant:normal;font-weight:normal;font-stretch:normal;font-size:12.7px;font-family:'SF Comic Script Extended';-inkscape-font-specification:'SF Comic Script Extended, Normal';font-variant-ligatures:normal;font-variant-caps:normal;font-variant-numeric:normal;font-variant-east-asian:normal;stroke-width:0.264583"
         id="path968" />
      <path
         d="m 29.430411,288.38824 q -0.04961,0.22945 -0.148828,0.39068 -0.663526,1.34565 -2.176612,2.20141 -1.37666,0.77515 -3.112988,0.98599 l -0.68833,2.18901 -1.792139,0.14883 q 0.551905,-1.66191 2.033985,-6.23218 -0.31626,0.0372 -0.675928,0.13643 l 0.117822,-1.38906 q 0.545703,-0.12403 1.11001,-0.17984 2.393652,-0.19843 3.609082,-0.0186 2.1146,0.31626 1.723926,1.76733 z m -2.127002,0.5271 q 0.148828,-0.5581 -0.372071,-0.78134 -0.403076,-0.16743 -1.246435,-0.16123 -0.626318,0.031 -1.252637,0.0558 l 0.756543,0.31626 -0.756543,2.24482 q 0.905371,-0.0868 1.730127,-0.49609 0.961182,-0.4899 1.141016,-1.17823 z"
         style="font-style:normal;font-variant:normal;font-weight:normal;font-stretch:normal;font-size:12.7px;font-family:'SF Comic Script Extended';-inkscape-font-specification:'SF Comic Script Extended, Normal';font-variant-ligatures:normal;font-variant-caps:normal;font-variant-numeric:normal;font-variant-east-asian:normal;stroke-width:0.264583"
         id="path970" />
      <path
         d="m 33.839444,292.34459 -0.558106,1.61231 q -1.029394,0.15503 -2.182812,0.24804 -1.159619,0.11162 -2.145605,0.13023 0.37207,-2.00298 0.843359,-3.80132 0.502295,-1.89136 1.209228,-3.81992 l 1.947168,-0.062 q -0.731738,2.158 -1.203027,3.92534 -0.254248,0.94258 -0.489893,1.99057 0.657325,0 1.283643,-0.0558 0.632519,-0.0496 1.296045,-0.16743 z"
         style="font-style:normal;font-variant:normal;font-weight:normal;font-stretch:normal;font-size:12.7px;font-family:'SF Comic Script Extended';-inkscape-font-specification:'SF Comic Script Extended, Normal';font-variant-ligatures:normal;font-variant-caps:normal;font-variant-numeric:normal;font-variant-east-asian:normal;stroke-width:0.264583"
         id="path972" />
      <path
         d="m 38.329093,286.65192 q -0.74414,2.1456 -1.227832,3.98115 -0.465088,1.74253 -0.806152,3.53467 l -1.965772,0.16743 q 0.359668,-1.99058 0.84336,-3.78892 0.508496,-1.89756 1.209228,-3.83232 z"
         style="font-style:normal;font-variant:normal;font-weight:normal;font-stretch:normal;font-size:12.7px;font-family:'SF Comic Script Extended';-inkscape-font-specification:'SF Comic Script Extended, Normal';font-variant-ligatures:normal;font-variant-caps:normal;font-variant-numeric:normal;font-variant-east-asian:normal;stroke-width:0.264583"
         id="path974" />
      <path
         d="m 45.355019,286.48448 -0.502294,1.51929 -2.040186,0.0868 q -0.465088,1.53789 -0.855762,2.97656 -0.390674,1.44487 -0.731738,2.95796 l -1.978174,0.17363 q 0.347266,-1.68672 0.781348,-3.29282 0.341064,-1.28984 0.79375,-2.69751 l -1.990576,0.0744 0.508496,-1.53789 z"
         style="font-style:normal;font-variant:normal;font-weight:normal;font-stretch:normal;font-size:12.7px;font-family:'SF Comic Script Extended';-inkscape-font-specification:'SF Comic Script Extended, Normal';font-variant-ligatures:normal;font-variant-caps:normal;font-variant-numeric:normal;font-variant-east-asian:normal;stroke-width:0.264583"
         id="path976" />
    </g>
    <g
       id="text1572"
       style="font-style:normal;font-weight:normal;font-size:10.5833px;line-height:1.25;font-family:sans-serif;white-space:pre;shape-inside:url(#rect1574);fill:#000000;fill-opacity:1;stroke:none" />
  </g>
</svg>
